<svg xmlns="http://www.w3.org/2000/svg" xmlns:xlink="http://www.w3.org/1999/xlink" viewBox="0 0 46.99974 54.0002"><defs><clipPath id="clip-path" transform="translate(-15.00014 -12.0027)"><rect width="78" height="78" style="fill:none"/></clipPath><clipPath id="clip-path-3" transform="translate(-15.00014 -12.0027)"><rect x="15.4826" y="12.4852" width="23.6721" height="14.2033" style="fill:none"/></clipPath><clipPath id="clip-path-4" transform="translate(-15.00014 -12.0027)"><rect x="15.4827" y="25.4052" width="46.0325" height="27.1613" style="fill:none"/></clipPath><clipPath id="clip-path-5" transform="translate(-15.00014 -12.0027)"><rect x="37.8734" y="12.4853" width="23.6416" height="14.2032" style="fill:none"/></clipPath><clipPath id="clip-path-6" transform="translate(-15.00014 -12.0027)"><rect x="15.4827" y="25.406" width="46.0346" height="27.1605" style="fill:none"/></clipPath><clipPath id="clip-path-7" transform="translate(-15.00014 -12.0027)"><rect x="15.4827" y="51.284" width="23.6719" height="14.2361" style="fill:none"/></clipPath><clipPath id="clip-path-8" transform="translate(-15.00014 -12.0027)"><rect x="37.8731" y="51.2834" width="23.6442" height="14.2367" style="fill:none"/></clipPath><clipPath id="clip-path-9" transform="translate(-15.00014 -12.0027)"><rect x="15.4829" y="25.4063" width="1.281" height="27.1602" style="fill:none"/></clipPath><clipPath id="clip-path-10" transform="translate(-15.00014 -12.0027)"><rect x="60.234" y="25.4063" width="1.2831" height="27.1602" style="fill:none"/></clipPath><clipPath id="clip-path-11" transform="translate(-15.00014 -12.0027)"><rect x="37.8734" y="12.486" width="1.2809" height="52.9601" style="fill:none"/></clipPath></defs><g id="Layer_2" data-name="Layer 2"><g id="Layer_1-2" data-name="Layer 1"><g style="clip-path:url(#clip-path)"><g style="clip-path:url(#clip-path)"><path d="M45.0264,18.0225a1.12044,1.12044,0,0,1-.562-.152l-5.952-3.445-5.973,3.446a1.12376,1.12376,0,1,1-1.121-1.948l6.535-3.77a1.11868,1.11868,0,0,1,1.123.001l6.513,3.77a1.12445,1.12445,0,0,1-.563,2.098" transform="translate(-15.00014 -12.0027)"/><path d="M38.5137,47.6499a1.12349,1.12349,0,0,1-1.123-1.124v-7.54a1.123,1.123,0,1,1,2.246,0v7.54a1.12349,1.12349,0,0,1-1.123,1.124" transform="translate(-15.00014 -12.0027)"/><path d="M16.123,34.708a1.12328,1.12328,0,0,1-1.122-1.124V26.047a1.1225,1.1225,0,1,1,2.245,0v7.537a1.12349,1.12349,0,0,1-1.123,1.124" transform="translate(-15.00014 -12.0027)"/><path d="M60.876,34.708a1.12349,1.12349,0,0,1-1.123-1.124l-.001-7.537a1.1225,1.1225,0,1,1,2.245,0l.001,7.537a1.12328,1.12328,0,0,1-1.122,1.124" transform="translate(-15.00014 -12.0027)"/><path d="M60.877,53.0493a1.12285,1.12285,0,0,1-1.123-1.124l-.006-7.537a1.12264,1.12264,0,0,1,1.122-1.124h.001a1.12264,1.12264,0,0,1,1.123,1.123l.005,7.537a1.122,1.122,0,0,1-1.121,1.125Z" transform="translate(-15.00014 -12.0027)"/><path d="M16.123,53.0493a1.12328,1.12328,0,0,1-1.122-1.124v-7.537a1.1225,1.1225,0,1,1,2.245,0v7.537a1.12349,1.12349,0,0,1-1.123,1.124" transform="translate(-15.00014 -12.0027)"/><path d="M38.5137,22.4687a1.12349,1.12349,0,0,1-1.123-1.124v-8.218a1.123,1.123,0,1,1,2.246,0v8.218a1.12349,1.12349,0,0,1-1.123,1.124" transform="translate(-15.00014 -12.0027)"/><path d="M38.5137,66.0029a1.12349,1.12349,0,0,1-1.123-1.124v-7.537a1.123,1.123,0,1,1,2.246,0v7.537a1.12349,1.12349,0,0,1-1.123,1.124" transform="translate(-15.00014 -12.0027)"/><path d="M38.5137,66.0029a1.12989,1.12989,0,0,1-.562-.15l-6.558-3.794a1.12433,1.12433,0,0,1,1.125-1.947l5.995,3.469,5.914-3.427a1.12389,1.12389,0,0,1,1.125,1.946l-6.477,3.752a1.11261,1.11261,0,0,1-.562.151" transform="translate(-15.00014 -12.0027)"/><path d="M38.5137,40.1099a1.13264,1.13264,0,0,1-.562-.15l-6.535-3.772a1.12469,1.12469,0,0,1,1.123-1.949l5.973,3.449,5.952-3.447a1.12389,1.12389,0,0,1,1.125,1.946l-6.514,3.772a1.11261,1.11261,0,0,1-.562.151" transform="translate(-15.00014 -12.0027)"/><path d="M54.3545,30.9424a1.12445,1.12445,0,0,1-.562-2.098l6.521-3.771a1.124,1.124,0,0,1,1.122,1.948l-6.52,3.77a1.12042,1.12042,0,0,1-.561.151" transform="translate(-15.00014 -12.0027)"/><path d="M60.873,27.1719a1.11683,1.11683,0,0,1-.56-.151l-6.531-3.774a1.12383,1.12383,0,1,1,1.123-1.947l6.53,3.774a1.12382,1.12382,0,0,1-.562,2.098" transform="translate(-15.00014 -12.0027)"/><path d="M22.6475,30.9424a1.12042,1.12042,0,0,1-.561-.151l-6.525-3.77a1.12426,1.12426,0,0,1,1.123-1.948l6.525,3.771a1.12413,1.12413,0,0,1-.562,2.098" transform="translate(-15.00014 -12.0027)"/><path d="M16.124,27.1719a1.12455,1.12455,0,0,1-.561-2.099l6.519-3.761a1.12376,1.12376,0,0,1,1.121,1.948l-6.519,3.762a1.12867,1.12867,0,0,1-.56.15" transform="translate(-15.00014 -12.0027)"/><path d="M54.3418,56.8203a1.124,1.124,0,0,1-.562-2.098l6.537-3.771a1.12351,1.12351,0,1,1,1.12,1.948l-6.536,3.771a1.125,1.125,0,0,1-.559.15" transform="translate(-15.00014 -12.0027)"/><path d="M60.876,53.0498a1.11772,1.11772,0,0,1-.561-.151l-6.525-3.771a1.12383,1.12383,0,0,1,1.123-1.947l6.525,3.771a1.12414,1.12414,0,0,1-.562,2.098" transform="translate(-15.00014 -12.0027)"/><path d="M22.6475,56.8247a1.12675,1.12675,0,0,1-.562-.151l-6.525-3.775a1.12433,1.12433,0,0,1,1.125-1.947l6.525,3.775a1.12477,1.12477,0,0,1-.563,2.098" transform="translate(-15.00014 -12.0027)"/><path d="M16.124,53.0498a1.12422,1.12422,0,0,1-.563-2.097l6.513-3.772a1.12433,1.12433,0,0,1,1.125,1.947l-6.513,3.771a1.124,1.124,0,0,1-.562.151" transform="translate(-15.00014 -12.0027)"/><g style="opacity:0.19999699294567108"><g style="clip-path:url(#clip-path-3)"><path d="M16.124,26.6885a.6409.6409,0,0,1-.321-1.196l22.39-12.921a.64133.64133,0,0,1,.641,1.111l-22.391,12.92a.63989.63989,0,0,1-.319.086" transform="translate(-15.00014 -12.0027)"/></g></g><g style="opacity:0.19999699294567108"><g style="clip-path:url(#clip-path-4)"><path d="M16.124,52.5664a.641.641,0,0,1-.321-1.196l44.752-25.878a.64039.64039,0,0,1,.639,1.11L16.443,52.4804a.63716.63716,0,0,1-.319.086" transform="translate(-15.00014 -12.0027)"/></g></g><g style="opacity:0.19999699294567108"><g style="clip-path:url(#clip-path-5)"><path d="M60.873,26.6885a.63628.63628,0,0,1-.318-.086l-22.362-12.92a.64133.64133,0,0,1,.641-1.111l22.36,12.921a.64072.64072,0,0,1-.321,1.196" transform="translate(-15.00014 -12.0027)"/></g></g><g style="opacity:0.19999699294567108"><g style="clip-path:url(#clip-path-6)"><path d="M60.876,52.5664a.63446.63446,0,0,1-.319-.086L15.803,26.6024a.64064.64064,0,0,1,.64-1.11l44.754,25.878a.641.641,0,0,1-.321,1.196" transform="translate(-15.00014 -12.0027)"/></g></g><g style="opacity:0.19999699294567108"><g style="clip-path:url(#clip-path-7)"><path d="M38.5127,65.52a.63716.63716,0,0,1-.319-.086L15.8027,52.48a.64089.64089,0,0,1,.641-1.11l22.39,12.954a.64072.64072,0,0,1-.321,1.196" transform="translate(-15.00014 -12.0027)"/></g></g><g style="opacity:0.19999699294567108"><g style="clip-path:url(#clip-path-8)"><path d="M38.5146,65.52a.64136.64136,0,0,1-.322-1.196l22.363-12.953a.641.641,0,0,1,.643,1.109L38.8346,65.434a.64077.64077,0,0,1-.32.086" transform="translate(-15.00014 -12.0027)"/></g></g><g style="opacity:0.19999699294567108"><g style="clip-path:url(#clip-path-9)"><path d="M16.123,52.5664a.64017.64017,0,0,1-.64-.641V26.0474a.6405.6405,0,1,1,1.281,0v25.878a.641.641,0,0,1-.641.641" transform="translate(-15.00014 -12.0027)"/></g></g><g style="opacity:0.19999699294567108"><g style="clip-path:url(#clip-path-10)"><path d="M60.877,52.5664a.641.641,0,0,1-.641-.641l-.002-25.878a.6405.6405,0,1,1,1.281,0l.002,25.878a.64017.64017,0,0,1-.64.641" transform="translate(-15.00014 -12.0027)"/></g></g><g style="opacity:0.19999699294567108"><g style="clip-path:url(#clip-path-11)"><path d="M38.5137,65.4463a.641.641,0,0,1-.641-.641V13.1273a.641.641,0,0,1,1.282,0v51.678a.641.641,0,0,1-.641.641" transform="translate(-15.00014 -12.0027)"/></g></g></g></g></g></g></svg>