<svg xmlns="http://www.w3.org/2000/svg" viewBox="0 0 554.04254 93.37524"><g id="Layer_2" data-name="Layer 2"><g id="Layer_1-2" data-name="Layer 1"><path d="M94.963,93l-.49122-7.13131,6.6317-1.01876V13.151l-7-.50987V5h21.46763l.51739,7.13086-6.985,1.01855v43.418L145.3223,12.63965,135.10346,11.876V5h24v7.01391l-3.96815.89063L129.67047,44.35473l22.791,40.10743,7.642,1.1455V93H145.71854L123.61271,51.874,110.10346,69.19043V84.85156l7,.50879V93Z"/><path d="M168.12164,93l-1.146-5.60913,8.12782-1.91016v-45.582l-7.36366.50879-1.146-6.49414,12.605-2.292,2.90467,3.82031V85.48828l8,1.90918V93ZM176.398,14.051a6.52338,6.52338,0,0,1-6.6211-6.62109,6.61853,6.61853,0,0,1,1.90967-4.77441A6.29756,6.29756,0,0,1,176.398.68188a6.50916,6.50916,0,0,1,4.77441,1.97364,6.50948,6.50948,0,0,1,1.97363,4.77441,6.2983,6.2983,0,0,1-1.97363,4.71094A6.61861,6.61861,0,0,1,176.398,14.051Z"/><path d="M198.37349,93l-.635-5.59175,7.365-1.77879V9h-6.98417l-1.14293-6.22724L209.67468.61287l3.42878,3.812V58.8047L235.56748,38h-5.233l-1.021-6h18.12684l1.77561,3.42477L227.91054,55.33532,243.50876,86.025l6.5947,1.3948V93H236.47818L220.47831,61.169l-7.37485,7.12988v17.3164l7,1.65528V93Z"/><path d="M283.60553,93.06445q-9.29517,0-15.40625-4.01074A24.73465,24.73465,0,0,1,259.03179,78.167a36.88838,36.88838,0,0,1-3.05566-15.15137,38.6174,38.6174,0,0,1,3.18311-15.916,26.903,26.903,0,0,1,9.16748-11.332,24.39176,24.39176,0,0,1,14.38769-4.20215,22.3469,22.3469,0,0,1,9.48584,1.97363,17.00553,17.00553,0,0,1,6.87549,5.666,15.27494,15.27494,0,0,1,2.61035,9.04q0,6.75146-3.31055,10.88672a20.33192,20.33192,0,0,1-8.72168,6.23925,48.298,48.298,0,0,1-11.65039,2.86426A100.45757,100.45757,0,0,1,265.78033,69h-1.01855a22.37629,22.37629,0,0,0,5.92041,12.15918q4.64648,4.77393,13.56,4.77441a27.19512,27.19512,0,0,0,8.02149-1.209,22.57743,22.57743,0,0,0,6.87549-3.375l2.16455,6.876a21.51782,21.51782,0,0,1-5.34766,2.86523,29.32345,29.32345,0,0,1-6.04785,1.52734A44.5688,44.5688,0,0,1,283.60553,93.06445ZM264.37945,62H266.544q3.56324,0,8.14893-.31836a42.0912,42.0912,0,0,0,8.78564-1.52734A16.24154,16.24154,0,0,0,290.4815,56.207a9.9414,9.9414,0,0,0,2.80078-7.44922q0-5.09032-3.50146-7.25683a13.5279,13.5279,0,0,0-7.19385-2.165,15.31841,15.31841,0,0,0-9.80371,3.12011,19.83148,19.83148,0,0,0-6.04834,8.2754A33.32214,33.32214,0,0,0,264.37945,62Z"/><path d="M310.48993,93l-.64428-5.59175,8.25781-1.77879V9h-7.47592l-1.17993-6.23926L322.30012.59668,326.10346,4.416V85.9043l8,1.65527V93Z"/><path d="M368.27594,93.37524q-8.78614,0-14.51465-4.52051a26.687,26.687,0,0,1-8.46778-11.65039,41.1786,41.1786,0,0,1-2.7373-14.89648A38.71666,38.71666,0,0,1,345.48492,47.092a26.50569,26.50569,0,0,1,8.6582-11.2041,23.00148,23.00148,0,0,1,14.13282-4.2666q9.03954,0,14.76953,4.39355a25.50787,25.50787,0,0,1,8.40332,11.39551,41.39494,41.39494,0,0,1,2.67382,14.89746,42.41446,42.41446,0,0,1-2.67382,15.02441,25.81655,25.81655,0,0,1-8.40332,11.58594Q377.31646,93.3772,368.27594,93.37524Zm0-7.38574q6.49365,0,10.31347-3.501a19.61426,19.61426,0,0,0,5.47461-8.78515,35.81417,35.81417,0,0,0,1.65527-10.75977A37.92775,37.92775,0,0,0,384.064,52.05786a21.35588,21.35588,0,0,0-5.47461-9.29492q-3.82031-3.7544-10.31347-3.75586a13.40419,13.40419,0,0,0-8.27637,2.48242,18.1841,18.1841,0,0,0-5.28418,6.30273,31.54987,31.54987,0,0,0-2.86426,8.085,39.026,39.026,0,0,0-.8916,7.958,31.34906,31.34906,0,0,0,1.78223,10.44043,19.33625,19.33625,0,0,0,5.60253,8.4043A14.61709,14.61709,0,0,0,368.27594,85.9895Z"/><path d="M404.85411,93l-.766-5.47461,7.01535-1.91016V39.52344l-6.8872.50976-1.14851-5.98535,12.88316-2.292,2.80575,5.2207a30.34662,30.34662,0,0,1,15.68892-4.96582,23.23684,23.23684,0,0,1,8.67356,1.52832,14.05816,14.05816,0,0,1,6.24935,4.83887,26.80357,26.80357,0,0,1,7.46243-4.457,28.23453,28.23453,0,0,1,6.24935-1.5918,39.51169,39.51169,0,0,1,4.146-.31836,22.96951,22.96951,0,0,1,10.33177,2.10156,14.25008,14.25008,0,0,1,6.37751,6.17481,21.52724,21.52724,0,0,1,2.1679,10.18652v35.1416l8,1.78223V93h-23.0348l-.503-5.60254,7.53777-1.78223v-34.251q0-6.11133-2.7008-9.10352-2.70273-2.98974-7.97715-2.99219a25.637,25.637,0,0,0-6.5328,1.01856q-3.76937,1.021-7.78925,5.34766V85.61523l8,1.78223V93H438.10373l-.4995-5.60254,7.49923-1.78223v-34.251q0-6.11133-2.68734-9.10352-2.68924-2.98974-7.93737-2.99219a22.1656,22.1656,0,0,0-7.68715,1.4004,20.80459,20.80459,0,0,0-6.68814,3.94726V85.48828l7,1.90918V93Z"/><path d="M528.19586,93.37524q-8.78613,0-14.51465-4.52051a26.68693,26.68693,0,0,1-8.46777-11.65039,41.17839,41.17839,0,0,1-2.73731-14.89648A38.71666,38.71666,0,0,1,505.40484,47.092a26.50569,26.50569,0,0,1,8.6582-11.2041,23.00148,23.00148,0,0,1,14.13282-4.2666q9.03954,0,14.76953,4.39355a25.50787,25.50787,0,0,1,8.40332,11.39551,41.395,41.395,0,0,1,2.67383,14.89746,42.41446,42.41446,0,0,1-2.67383,15.02441,25.81655,25.81655,0,0,1-8.40332,11.58594Q537.23638,93.3772,528.19586,93.37524Zm0-7.38574q6.49365,0,10.31347-3.501a19.61426,19.61426,0,0,0,5.47461-8.78515,35.81418,35.81418,0,0,0,1.65528-10.75977,37.92777,37.92777,0,0,0-1.65528-10.88574,21.35588,21.35588,0,0,0-5.47461-9.29492q-3.82031-3.7544-10.31347-3.75586a13.40419,13.40419,0,0,0-8.27637,2.48242,18.1841,18.1841,0,0,0-5.28418,6.30273,31.55025,31.55025,0,0,0-2.86426,8.085,39.02672,39.02672,0,0,0-.8916,7.958,31.34906,31.34906,0,0,0,1.78223,10.44043,19.33618,19.33618,0,0,0,5.60254,8.4043A14.617,14.617,0,0,0,528.19586,85.9895Z"/><path d="M58.62549.61878a2.98118,2.98118,0,0,0-1.273-.54314L57.10254,0H2.75488l-.104.00136A3.27058,3.27058,0,0,0,.71924.644L0,1.24778.1084,1.994C4.68994,33.50731,9.458,57.02423,14.28076,71.89123c4.75635,14.65847,9.36475,20.913,15.42578,20.913C35.77637,92.79266,43.145,87.3,51.77881,46.65222c4.6084-21.69943,7.37646-43.74847,7.49463-44.695l.0664-.781ZM19.57026,71.47461c-4.646-14.3191-9.25684-36.84652-13.70459-66.956a.39556.39556,0,0,1,.1709-.36391A.797.797,0,0,1,6.53315,4h19.8999c.36963,0,.67041.20989.67041.46817V87.24933l-.0083.05111a.221.221,0,0,1-.19824.02044C24.4853,84.35716,22.02,79.026,19.57026,71.47461Zm12.894,15.6391c-.04639.05725-.0708.08791-.21289.0627-.148-.02658-.148-.06679-.148-.13289V4.41911c0-.231.269-.41911.6001-.41911H53.27045a.1801.1801,0,0,1,.11328.03407.07443.07443,0,0,1,.03565.075c-.70313,5.31548-3.29981,24.08118-7.189,42.39234C40.64643,72.79326,35.66205,83.0978,32.4643,87.11371Z"/></g></g></svg>