<svg width="208" height="76" viewBox="0 0 208 76" fill="none" xmlns="http://www.w3.org/2000/svg">
<path d="M7.08447 62.6035H2.97021L2.27734 64H0.0537109L3.91553 56.6201H6.13916L10.001 64H7.77734L7.08447 62.6035ZM3.68457 61.1641H6.38086L5.03809 58.4463L3.68457 61.1641Z" fill="black"/>
<path d="M19.7603 61.5132C19.7603 61.882 19.6689 62.2293 19.4863 62.5552C19.3037 62.881 19.0298 63.1657 18.6646 63.4092C18.2993 63.6527 17.8428 63.846 17.2949 63.9893C16.7507 64.1289 16.1133 64.1987 15.3828 64.1987C14.6523 64.1987 14.0114 64.1289 13.46 63.9893C12.9121 63.846 12.4556 63.6527 12.0903 63.4092C11.7251 63.1657 11.4512 62.881 11.2686 62.5552C11.0859 62.2293 10.9946 61.882 10.9946 61.5132V56.6201H12.9819V60.7988C12.9819 61.0459 13.0124 61.2804 13.0732 61.5024C13.1377 61.7209 13.2559 61.9124 13.4277 62.0771C13.6032 62.2419 13.8467 62.3726 14.1582 62.4692C14.4733 62.5659 14.8815 62.6143 15.3828 62.6143C15.8805 62.6143 16.2852 62.5659 16.5967 62.4692C16.9082 62.3726 17.1499 62.2419 17.3218 62.0771C17.4972 61.9124 17.6154 61.7209 17.6763 61.5024C17.7371 61.2804 17.7676 61.0459 17.7676 60.7988V56.6201H19.7603V61.5132Z" fill="black"/>
<path d="M31.0557 60.3047C31.0557 60.7773 31.0037 61.1981 30.8999 61.5669C30.7961 61.9321 30.6493 62.2508 30.4595 62.5229C30.2733 62.7951 30.0477 63.026 29.7827 63.2158C29.5213 63.4056 29.2295 63.5578 28.9072 63.6724C28.585 63.7869 28.2376 63.8711 27.8652 63.9248C27.4928 63.9749 27.1043 64 26.6997 64H22.0161V56.6201H26.689C27.0936 56.6201 27.4821 56.647 27.8545 56.7007C28.2269 56.7508 28.5742 56.8332 28.8965 56.9478C29.2223 57.0623 29.5177 57.2145 29.7827 57.4043C30.0477 57.5905 30.2733 57.8215 30.4595 58.0972C30.6493 58.3693 30.7961 58.688 30.8999 59.0532C31.0037 59.4185 31.0557 59.8356 31.0557 60.3047ZM29.0469 60.3047C29.0469 59.9502 29.0003 59.6423 28.9072 59.3809C28.8177 59.1195 28.6709 58.9046 28.4668 58.7363C28.2663 58.5645 28.0031 58.4373 27.6772 58.355C27.3514 58.269 26.9539 58.2261 26.4849 58.2261H24.0088V62.394H26.4849C26.9539 62.394 27.3514 62.3529 27.6772 62.2705C28.0031 62.1846 28.2663 62.0557 28.4668 61.8838C28.6709 61.7083 28.8177 61.4899 28.9072 61.2285C29.0003 60.9671 29.0469 60.6592 29.0469 60.3047Z" fill="black"/>
<path d="M32.8765 64V56.6201H34.8691V64H32.8765Z" fill="black"/>
<path d="M46.7339 60.3154C46.7339 60.9492 46.6175 61.5096 46.3848 61.9966C46.152 62.48 45.819 62.8846 45.3857 63.2104C44.9525 63.5363 44.4261 63.7834 43.8066 63.9517C43.1908 64.1164 42.4979 64.1987 41.728 64.1987C40.9582 64.1987 40.2617 64.1164 39.6387 63.9517C39.0192 63.7834 38.491 63.5363 38.0542 63.2104C37.6174 62.8846 37.2808 62.48 37.0444 61.9966C36.8081 61.5096 36.6899 60.9492 36.6899 60.3154C36.6899 59.6816 36.8081 59.123 37.0444 58.6396C37.2808 58.1527 37.6174 57.7463 38.0542 57.4204C38.491 57.0946 39.0192 56.8493 39.6387 56.6846C40.2617 56.5163 40.9582 56.4321 41.728 56.4321C42.4979 56.4321 43.1908 56.5163 43.8066 56.6846C44.4261 56.8493 44.9525 57.0946 45.3857 57.4204C45.819 57.7463 46.152 58.1527 46.3848 58.6396C46.6175 59.123 46.7339 59.6816 46.7339 60.3154ZM44.7197 60.3154C44.7197 60.0397 44.675 59.7658 44.5854 59.4937C44.4995 59.2179 44.3438 58.9709 44.1182 58.7524C43.8962 58.534 43.5918 58.3568 43.2051 58.2207C42.8184 58.0846 42.326 58.0166 41.728 58.0166C41.327 58.0166 40.9743 58.0488 40.6699 58.1133C40.3656 58.1742 40.1024 58.2601 39.8804 58.3711C39.6584 58.4821 39.4722 58.6128 39.3218 58.7632C39.1714 58.91 39.0514 59.0693 38.9619 59.2412C38.8724 59.4095 38.8079 59.5868 38.7686 59.7729C38.7327 59.9556 38.7148 60.1364 38.7148 60.3154C38.7148 60.498 38.7327 60.6825 38.7686 60.8687C38.8079 61.0549 38.8724 61.2339 38.9619 61.4058C39.0514 61.5741 39.1714 61.7316 39.3218 61.8784C39.4722 62.0252 39.6584 62.1541 39.8804 62.2651C40.1024 62.3726 40.3656 62.4585 40.6699 62.5229C40.9743 62.5838 41.327 62.6143 41.728 62.6143C42.326 62.6143 42.8184 62.5462 43.2051 62.4102C43.5918 62.2741 43.8962 62.0968 44.1182 61.8784C44.3438 61.66 44.4995 61.4147 44.5854 61.1426C44.675 60.8669 44.7197 60.5911 44.7197 60.3154Z" fill="black"/>
<path d="M61.1016 61.9644C61.1016 62.2508 61.064 62.4997 60.9888 62.7109C60.9136 62.9222 60.8079 63.1048 60.6719 63.2588C60.5394 63.4092 60.3783 63.5327 60.1885 63.6294C60.0023 63.7225 59.7946 63.7977 59.5654 63.855C59.3398 63.9087 59.0981 63.9463 58.8403 63.9678C58.5825 63.9893 58.3158 64 58.04 64H52.6851V56.6201H57.9434C58.1546 56.6201 58.3659 56.6291 58.5771 56.647C58.792 56.6649 58.9961 56.6989 59.1895 56.749C59.3828 56.7956 59.5618 56.8618 59.7266 56.9478C59.8949 57.0337 60.0399 57.1465 60.1616 57.2861C60.2869 57.4258 60.3836 57.5941 60.4517 57.791C60.5233 57.988 60.5591 58.2207 60.5591 58.4893C60.5591 58.9691 60.4409 59.3504 60.2046 59.6333C59.9683 59.9126 59.5959 60.0988 59.0874 60.1919C59.4455 60.217 59.7516 60.2725 60.0059 60.3584C60.2637 60.4408 60.4731 60.5553 60.6343 60.7021C60.7954 60.8454 60.9136 61.0226 60.9888 61.2339C61.064 61.4416 61.1016 61.6851 61.1016 61.9644ZM58.6147 58.8062C58.6147 58.7131 58.6004 58.6253 58.5718 58.543C58.5431 58.457 58.4912 58.3818 58.416 58.3174C58.3408 58.2529 58.2388 58.201 58.1099 58.1616C57.981 58.1222 57.8162 58.1025 57.6157 58.1025H54.6777V59.4883H57.6157C57.8162 59.4883 57.981 59.4704 58.1099 59.4346C58.2388 59.3988 58.3408 59.3504 58.416 59.2896C58.4912 59.2287 58.5431 59.1571 58.5718 59.0747C58.6004 58.9888 58.6147 58.8993 58.6147 58.8062ZM59.0767 61.7334C59.0767 61.5651 59.048 61.4308 58.9907 61.3306C58.9334 61.2267 58.8439 61.1479 58.7222 61.0942C58.6004 61.0369 58.4429 60.9993 58.2495 60.9814C58.0562 60.9635 57.8252 60.9546 57.5566 60.9546H54.6777V62.5176H57.5566C57.8252 62.5176 58.0562 62.5086 58.2495 62.4907C58.4429 62.4728 58.6004 62.4352 58.7222 62.3779C58.8439 62.3206 58.9334 62.2419 58.9907 62.1416C59.048 62.0378 59.0767 61.9017 59.0767 61.7334Z" fill="black"/>
<path d="M67.5522 60.9868V64H65.5649V60.9868L61.9878 56.6201H64.2222L66.564 59.5903L68.895 56.6201H71.1294L67.5522 60.9868Z" fill="black"/>
<path d="M84.772 63.4951C84.5142 63.6025 84.2546 63.6992 83.9932 63.7852C83.7318 63.8711 83.4614 63.9445 83.1821 64.0054C82.9028 64.0698 82.6074 64.1182 82.2959 64.1504C81.988 64.1826 81.6567 64.1987 81.3022 64.1987C80.5503 64.1987 79.8574 64.1182 79.2236 63.957C78.5934 63.7959 78.0492 63.5542 77.5908 63.2319C77.1361 62.9061 76.7816 62.5015 76.5273 62.0181C76.2731 61.5311 76.146 60.9635 76.146 60.3154C76.146 59.6673 76.2731 59.1016 76.5273 58.6182C76.7816 58.1312 77.1361 57.7266 77.5908 57.4043C78.0492 57.0785 78.5934 56.835 79.2236 56.6738C79.8574 56.5127 80.5503 56.4321 81.3022 56.4321C81.6567 56.4321 81.988 56.4482 82.2959 56.4805C82.6074 56.5127 82.9028 56.561 83.1821 56.6255C83.4614 56.6864 83.7318 56.7598 83.9932 56.8457C84.2546 56.9316 84.5142 57.0283 84.772 57.1357V58.9297C84.5679 58.8187 84.353 58.7095 84.1274 58.6021C83.9019 58.491 83.653 58.3926 83.3809 58.3066C83.1087 58.2171 82.8097 58.1455 82.4839 58.0918C82.158 58.0345 81.791 58.0059 81.3828 58.0059C80.7562 58.0059 80.2352 58.0703 79.8198 58.1992C79.408 58.3281 79.0786 58.5 78.8315 58.7148C78.5845 58.9297 78.4108 59.1768 78.3105 59.4561C78.2103 59.7318 78.1602 60.0182 78.1602 60.3154C78.1602 60.5124 78.1816 60.7075 78.2246 60.9009C78.2676 61.0907 78.3392 61.2715 78.4395 61.4434C78.5397 61.6117 78.6704 61.7674 78.8315 61.9106C78.9927 62.0539 79.1932 62.1774 79.4331 62.2812C79.673 62.3851 79.9523 62.4674 80.271 62.5283C80.5933 62.5856 80.9639 62.6143 81.3828 62.6143C81.791 62.6143 82.158 62.5892 82.4839 62.5391C82.8097 62.4854 83.1087 62.4155 83.3809 62.3296C83.653 62.2437 83.9019 62.147 84.1274 62.0396C84.353 61.9285 84.5679 61.8158 84.772 61.7012V63.4951Z" fill="black"/>
<path d="M93.6021 64L88.623 58.9297V64H86.6304V56.6201H88.7949L93.7793 61.7119V56.6201H95.7612V64H93.6021Z" fill="black"/>
<path d="M105.042 64L100.063 58.9297V64H98.0708V56.6201H100.235L105.22 61.7119V56.6201H107.202V64H105.042Z" fill="black"/>
<path d="M113.26 60.2134C113.26 59.9985 113.301 59.7962 113.384 59.6064C113.466 59.4131 113.577 59.2448 113.717 59.1016C113.86 58.9583 114.027 58.8455 114.216 58.7632C114.41 58.6772 114.616 58.6343 114.834 58.6343C115.052 58.6343 115.257 58.6772 115.446 58.7632C115.64 58.8455 115.808 58.9583 115.951 59.1016C116.094 59.2448 116.207 59.4131 116.29 59.6064C116.375 59.7962 116.418 59.9985 116.418 60.2134C116.418 60.4318 116.375 60.6377 116.29 60.8311C116.207 61.0208 116.094 61.1873 115.951 61.3306C115.808 61.4702 115.64 61.5812 115.446 61.6636C115.257 61.7459 115.052 61.7871 114.834 61.7871C114.616 61.7871 114.41 61.7459 114.216 61.6636C114.027 61.5812 113.86 61.4702 113.717 61.3306C113.577 61.1873 113.466 61.0208 113.384 60.8311C113.301 60.6377 113.26 60.4318 113.26 60.2134Z" fill="black"/>
<path d="M7.95459 69.6987C7.81494 69.6307 7.63053 69.5537 7.40137 69.4678C7.1722 69.3818 6.9126 69.3013 6.62256 69.2261C6.33252 69.1473 6.01742 69.0828 5.67725 69.0327C5.33708 68.979 4.98796 68.9521 4.62988 68.9521C4.34342 68.9521 4.09814 68.9611 3.89404 68.979C3.69352 68.9969 3.52344 69.0202 3.38379 69.0488C3.24772 69.0775 3.13851 69.1115 3.05615 69.1509C2.97738 69.1867 2.9165 69.2243 2.87354 69.2637C2.83057 69.3031 2.80192 69.3424 2.7876 69.3818C2.77686 69.4212 2.77148 69.457 2.77148 69.4893C2.77148 69.5967 2.8252 69.6916 2.93262 69.7739C3.04004 69.8527 3.18685 69.9243 3.37305 69.9888C3.55924 70.0496 3.77588 70.1087 4.02295 70.166C4.27002 70.2197 4.53141 70.277 4.80713 70.3379C5.08643 70.3952 5.37288 70.4596 5.6665 70.5312C5.9637 70.5993 6.25016 70.6799 6.52588 70.7729C6.80518 70.866 7.06836 70.9753 7.31543 71.1006C7.5625 71.2223 7.77913 71.3656 7.96533 71.5303C8.15153 71.695 8.29834 71.8848 8.40576 72.0996C8.51318 72.3145 8.56689 72.5597 8.56689 72.8354C8.56689 73.1899 8.50423 73.4943 8.37891 73.7485C8.25358 74.0028 8.08529 74.2176 7.87402 74.3931C7.66634 74.5685 7.42464 74.71 7.14893 74.8174C6.87321 74.9212 6.58317 75.0018 6.27881 75.0591C5.97803 75.1164 5.67188 75.154 5.36035 75.1719C5.05241 75.1898 4.75879 75.1987 4.47949 75.1987C3.74902 75.1987 3.07227 75.1379 2.44922 75.0161C1.82975 74.8979 1.2819 74.7493 0.805664 74.5703V72.8086C1.29622 73.0807 1.85482 73.2938 2.48145 73.4478C3.11165 73.6017 3.78483 73.6787 4.50098 73.6787C4.9235 73.6787 5.26725 73.6572 5.53223 73.6143C5.80078 73.5677 6.01025 73.5104 6.16064 73.4424C6.31104 73.3708 6.41309 73.2938 6.4668 73.2114C6.52051 73.1291 6.54736 73.0503 6.54736 72.9751C6.54736 72.8569 6.49365 72.7549 6.38623 72.6689C6.27881 72.5794 6.132 72.5024 5.9458 72.438C5.7596 72.37 5.54297 72.3091 5.2959 72.2554C5.04883 72.1981 4.78564 72.1426 4.50635 72.0889C4.23063 72.0316 3.94596 71.9707 3.65234 71.9062C3.35872 71.8418 3.07227 71.7666 2.79297 71.6807C2.51725 71.5911 2.25586 71.4891 2.00879 71.3745C1.76172 71.2563 1.54508 71.1185 1.35889 70.9609C1.17269 70.7998 1.02588 70.6154 0.918457 70.4077C0.811035 70.1965 0.757324 69.953 0.757324 69.6772C0.757324 69.3514 0.814616 69.0703 0.929199 68.834C1.04378 68.5977 1.19775 68.3971 1.39111 68.2324C1.58805 68.0641 1.81364 67.9281 2.06787 67.8242C2.32568 67.7204 2.59603 67.6398 2.87891 67.5825C3.16178 67.5252 3.44824 67.4858 3.73828 67.4644C4.02832 67.4429 4.30404 67.4321 4.56543 67.4321C4.85189 67.4321 5.14551 67.4465 5.44629 67.4751C5.75065 67.5037 6.04964 67.5449 6.34326 67.5986C6.63688 67.6488 6.91976 67.7078 7.19189 67.7759C7.46761 67.8439 7.72184 67.9155 7.95459 67.9907V69.6987Z" fill="black"/>
<path d="M20.0073 71.3154C20.0073 71.9492 19.891 72.5096 19.6582 72.9966C19.4255 73.48 19.0924 73.8846 18.6592 74.2104C18.2259 74.5363 17.6995 74.7834 17.0801 74.9517C16.4642 75.1164 15.7713 75.1987 15.0015 75.1987C14.2316 75.1987 13.5352 75.1164 12.9121 74.9517C12.2926 74.7834 11.7645 74.5363 11.3276 74.2104C10.8908 73.8846 10.5542 73.48 10.3179 72.9966C10.0815 72.5096 9.96338 71.9492 9.96338 71.3154C9.96338 70.6816 10.0815 70.123 10.3179 69.6396C10.5542 69.1527 10.8908 68.7463 11.3276 68.4204C11.7645 68.0946 12.2926 67.8493 12.9121 67.6846C13.5352 67.5163 14.2316 67.4321 15.0015 67.4321C15.7713 67.4321 16.4642 67.5163 17.0801 67.6846C17.6995 67.8493 18.2259 68.0946 18.6592 68.4204C19.0924 68.7463 19.4255 69.1527 19.6582 69.6396C19.891 70.123 20.0073 70.6816 20.0073 71.3154ZM17.9932 71.3154C17.9932 71.0397 17.9484 70.7658 17.8589 70.4937C17.7729 70.2179 17.6172 69.9709 17.3916 69.7524C17.1696 69.534 16.8652 69.3568 16.4785 69.2207C16.0918 69.0846 15.5994 69.0166 15.0015 69.0166C14.6004 69.0166 14.2477 69.0488 13.9434 69.1133C13.639 69.1742 13.3758 69.2601 13.1538 69.3711C12.9318 69.4821 12.7456 69.6128 12.5952 69.7632C12.4448 69.91 12.3249 70.0693 12.2354 70.2412C12.1458 70.4095 12.0814 70.5868 12.042 70.7729C12.0062 70.9556 11.9883 71.1364 11.9883 71.3154C11.9883 71.498 12.0062 71.6825 12.042 71.8687C12.0814 72.0549 12.1458 72.2339 12.2354 72.4058C12.3249 72.5741 12.4448 72.7316 12.5952 72.8784C12.7456 73.0252 12.9318 73.1541 13.1538 73.2651C13.3758 73.3726 13.639 73.4585 13.9434 73.5229C14.2477 73.5838 14.6004 73.6143 15.0015 73.6143C15.5994 73.6143 16.0918 73.5462 16.4785 73.4102C16.8652 73.2741 17.1696 73.0968 17.3916 72.8784C17.6172 72.66 17.7729 72.4147 17.8589 72.1426C17.9484 71.8669 17.9932 71.5911 17.9932 71.3154Z" fill="black"/>
<path d="M30.5347 72.5132C30.5347 72.882 30.4434 73.2293 30.2607 73.5552C30.0781 73.881 29.8042 74.1657 29.439 74.4092C29.0737 74.6527 28.6172 74.846 28.0693 74.9893C27.5251 75.1289 26.8877 75.1987 26.1572 75.1987C25.4268 75.1987 24.7858 75.1289 24.2344 74.9893C23.6865 74.846 23.23 74.6527 22.8647 74.4092C22.4995 74.1657 22.2256 73.881 22.043 73.5552C21.8604 73.2293 21.769 72.882 21.769 72.5132V67.6201H23.7563V71.7988C23.7563 72.0459 23.7868 72.2804 23.8477 72.5024C23.9121 72.7209 24.0303 72.9124 24.2021 73.0771C24.3776 73.2419 24.6211 73.3726 24.9326 73.4692C25.2477 73.5659 25.6559 73.6143 26.1572 73.6143C26.6549 73.6143 27.0596 73.5659 27.3711 73.4692C27.6826 73.3726 27.9243 73.2419 28.0962 73.0771C28.2716 72.9124 28.3898 72.7209 28.4507 72.5024C28.5116 72.2804 28.542 72.0459 28.542 71.7988V67.6201H30.5347V72.5132Z" fill="black"/>
<path d="M39.7622 75L34.7832 69.9297V75H32.7905V67.6201H34.9551L39.9395 72.7119V67.6201H41.9214V75H39.7622Z" fill="black"/>
<path d="M53.2705 71.3047C53.2705 71.7773 53.2186 72.1981 53.1147 72.5669C53.0109 72.9321 52.8641 73.2508 52.6743 73.5229C52.4881 73.7951 52.2625 74.026 51.9976 74.2158C51.7362 74.4056 51.4443 74.5578 51.1221 74.6724C50.7998 74.7869 50.4525 74.8711 50.0801 74.9248C49.7077 74.9749 49.3192 75 48.9146 75H44.231V67.6201H48.9038C49.3084 67.6201 49.6969 67.647 50.0693 67.7007C50.4417 67.7508 50.7891 67.8332 51.1113 67.9478C51.4372 68.0623 51.7326 68.2145 51.9976 68.4043C52.2625 68.5905 52.4881 68.8215 52.6743 69.0972C52.8641 69.3693 53.0109 69.688 53.1147 70.0532C53.2186 70.4185 53.2705 70.8356 53.2705 71.3047ZM51.2617 71.3047C51.2617 70.9502 51.2152 70.6423 51.1221 70.3809C51.0326 70.1195 50.8857 69.9046 50.6816 69.7363C50.4811 69.5645 50.2179 69.4373 49.8921 69.355C49.5662 69.269 49.1688 69.2261 48.6997 69.2261H46.2236V73.394H48.6997C49.1688 73.394 49.5662 73.3529 49.8921 73.2705C50.2179 73.1846 50.4811 73.0557 50.6816 72.8838C50.8857 72.7083 51.0326 72.4899 51.1221 72.2285C51.2152 71.9671 51.2617 71.6592 51.2617 71.3047Z" fill="black"/>
<path d="M68.2666 71.3047C68.2666 71.7773 68.2147 72.1981 68.1108 72.5669C68.007 72.9321 67.8602 73.2508 67.6704 73.5229C67.4842 73.7951 67.2586 74.026 66.9937 74.2158C66.7323 74.4056 66.4404 74.5578 66.1182 74.6724C65.7959 74.7869 65.4486 74.8711 65.0762 74.9248C64.7038 74.9749 64.3153 75 63.9106 75H59.2271V67.6201H63.8999C64.3045 67.6201 64.693 67.647 65.0654 67.7007C65.4378 67.7508 65.7852 67.8332 66.1074 67.9478C66.4333 68.0623 66.7287 68.2145 66.9937 68.4043C67.2586 68.5905 67.4842 68.8215 67.6704 69.0972C67.8602 69.3693 68.007 69.688 68.1108 70.0532C68.2147 70.4185 68.2666 70.8356 68.2666 71.3047ZM66.2578 71.3047C66.2578 70.9502 66.2113 70.6423 66.1182 70.3809C66.0286 70.1195 65.8818 69.9046 65.6777 69.7363C65.4772 69.5645 65.214 69.4373 64.8882 69.355C64.5623 69.269 64.1649 69.2261 63.6958 69.2261H61.2197V73.394H63.6958C64.1649 73.394 64.5623 73.3529 64.8882 73.2705C65.214 73.1846 65.4772 73.0557 65.6777 72.8838C65.8818 72.7083 66.0286 72.4899 66.1182 72.2285C66.2113 71.9671 66.2578 71.6592 66.2578 71.3047Z" fill="black"/>
<path d="M70.0874 75V67.6201H77.5586V69.1938H72.1338V70.4131H77.2793V71.9868H72.1338V73.4263H77.6338V75H70.0874Z" fill="black"/>
<path d="M86.3618 69.6987C86.2222 69.6307 86.0378 69.5537 85.8086 69.4678C85.5794 69.3818 85.3198 69.3013 85.0298 69.2261C84.7397 69.1473 84.4246 69.0828 84.0845 69.0327C83.7443 68.979 83.3952 68.9521 83.0371 68.9521C82.7507 68.9521 82.5054 68.9611 82.3013 68.979C82.1007 68.9969 81.9307 69.0202 81.791 69.0488C81.6549 69.0775 81.5457 69.1115 81.4634 69.1509C81.3846 69.1867 81.3237 69.2243 81.2808 69.2637C81.2378 69.3031 81.2091 69.3424 81.1948 69.3818C81.1841 69.4212 81.1787 69.457 81.1787 69.4893C81.1787 69.5967 81.2324 69.6916 81.3398 69.7739C81.4473 69.8527 81.5941 69.9243 81.7803 69.9888C81.9665 70.0496 82.1831 70.1087 82.4302 70.166C82.6772 70.2197 82.9386 70.277 83.2144 70.3379C83.4937 70.3952 83.7801 70.4596 84.0737 70.5312C84.3709 70.5993 84.6574 70.6799 84.9331 70.7729C85.2124 70.866 85.4756 70.9753 85.7227 71.1006C85.9697 71.2223 86.1864 71.3656 86.3726 71.5303C86.5588 71.695 86.7056 71.8848 86.813 72.0996C86.9204 72.3145 86.9741 72.5597 86.9741 72.8354C86.9741 73.1899 86.9115 73.4943 86.7861 73.7485C86.6608 74.0028 86.4925 74.2176 86.2812 74.3931C86.0736 74.5685 85.8319 74.71 85.5562 74.8174C85.2804 74.9212 84.9904 75.0018 84.686 75.0591C84.3853 75.1164 84.0791 75.154 83.7676 75.1719C83.4596 75.1898 83.166 75.1987 82.8867 75.1987C82.1562 75.1987 81.4795 75.1379 80.8564 75.0161C80.237 74.8979 79.6891 74.7493 79.2129 74.5703V72.8086C79.7035 73.0807 80.262 73.2938 80.8887 73.4478C81.5189 73.6017 82.1921 73.6787 82.9082 73.6787C83.3307 73.6787 83.6745 73.6572 83.9395 73.6143C84.208 73.5677 84.4175 73.5104 84.5679 73.4424C84.7183 73.3708 84.8203 73.2938 84.874 73.2114C84.9277 73.1291 84.9546 73.0503 84.9546 72.9751C84.9546 72.8569 84.9009 72.7549 84.7935 72.6689C84.686 72.5794 84.5392 72.5024 84.353 72.438C84.1668 72.37 83.9502 72.3091 83.7031 72.2554C83.4561 72.1981 83.1929 72.1426 82.9136 72.0889C82.6379 72.0316 82.3532 71.9707 82.0596 71.9062C81.766 71.8418 81.4795 71.7666 81.2002 71.6807C80.9245 71.5911 80.6631 71.4891 80.416 71.3745C80.1689 71.2563 79.9523 71.1185 79.7661 70.9609C79.5799 70.7998 79.4331 70.6154 79.3257 70.4077C79.2183 70.1965 79.1646 69.953 79.1646 69.6772C79.1646 69.3514 79.2218 69.0703 79.3364 68.834C79.451 68.5977 79.605 68.3971 79.7983 68.2324C79.9953 68.0641 80.2209 67.9281 80.4751 67.8242C80.7329 67.7204 81.0033 67.6398 81.2861 67.5825C81.569 67.5252 81.8555 67.4858 82.1455 67.4644C82.4355 67.4429 82.7113 67.4321 82.9727 67.4321C83.2591 67.4321 83.5527 67.4465 83.8535 67.4751C84.1579 67.5037 84.4569 67.5449 84.7505 67.5986C85.0441 67.6488 85.327 67.7078 85.5991 67.7759C85.8748 67.8439 86.1291 67.9155 86.3618 67.9907V69.6987Z" fill="black"/>
<path d="M88.8647 75V67.6201H90.8574V75H88.8647Z" fill="black"/>
<path d="M97.9258 67.4321C98.6491 67.4321 99.3205 67.4948 99.9399 67.6201C100.563 67.7419 101.134 67.8994 101.653 68.0928V69.8975C101.449 69.7829 101.218 69.6719 100.96 69.5645C100.706 69.457 100.429 69.3621 100.128 69.2798C99.8271 69.1974 99.5049 69.1312 99.1611 69.0811C98.8174 69.0309 98.4557 69.0059 98.0762 69.0059C97.6035 69.0059 97.1917 69.0399 96.8408 69.1079C96.4899 69.1759 96.1891 69.2673 95.9385 69.3818C95.6878 69.4964 95.4819 69.6307 95.3208 69.7847C95.1597 69.9351 95.0326 70.0962 94.9395 70.2681C94.8464 70.4399 94.7819 70.6154 94.7461 70.7944C94.7103 70.9735 94.6924 71.1471 94.6924 71.3154C94.6924 71.4622 94.7067 71.6216 94.7354 71.7935C94.7676 71.9653 94.8249 72.1372 94.9072 72.3091C94.9932 72.481 95.1113 72.6457 95.2617 72.8032C95.4121 72.9608 95.6073 73.1004 95.8472 73.2222C96.0907 73.3439 96.3825 73.4424 96.7227 73.5176C97.0628 73.5892 97.4674 73.625 97.9365 73.625C98.1729 73.625 98.3787 73.6178 98.5542 73.6035C98.7297 73.5892 98.889 73.5695 99.0322 73.5444C99.179 73.5194 99.3151 73.4889 99.4404 73.4531C99.5693 73.4173 99.7018 73.3797 99.8379 73.3403V72.4487H97.6035V70.832H101.831V74.6025C101.566 74.6921 101.268 74.7744 100.939 74.8496C100.613 74.9212 100.275 74.9821 99.9238 75.0322C99.5765 75.0859 99.2274 75.1271 98.8765 75.1558C98.5256 75.1844 98.1943 75.1987 97.8828 75.1987C97.3994 75.1987 96.9357 75.1665 96.4917 75.1021C96.0477 75.0376 95.6323 74.9391 95.2456 74.8066C94.8625 74.6706 94.5116 74.4987 94.1929 74.291C93.8778 74.0833 93.6074 73.8363 93.3818 73.5498C93.1598 73.2633 92.9862 72.9357 92.8608 72.5669C92.7391 72.1945 92.6782 71.7773 92.6782 71.3154C92.6782 70.8571 92.7427 70.4417 92.8716 70.0693C93.0005 69.6969 93.1795 69.3675 93.4087 69.0811C93.6414 68.7946 93.9189 68.5475 94.2412 68.3398C94.5671 68.1322 94.9233 67.9621 95.3101 67.8296C95.7004 67.6935 96.1157 67.5933 96.5562 67.5288C97.0002 67.4644 97.4567 67.4321 97.9258 67.4321Z" fill="black"/>
<path d="M110.951 75L105.972 69.9297V75H103.979V67.6201H106.144L111.128 72.7119V67.6201H113.11V75H110.951Z" fill="black"/>
<path d="M127.972 72.9644C127.972 73.2508 127.934 73.4997 127.859 73.7109C127.784 73.9222 127.678 74.1048 127.542 74.2588C127.41 74.4092 127.248 74.5327 127.059 74.6294C126.872 74.7225 126.665 74.7977 126.436 74.855C126.21 74.9087 125.968 74.9463 125.71 74.9678C125.453 74.9893 125.186 75 124.91 75H119.555V67.6201H124.813C125.025 67.6201 125.236 67.6291 125.447 67.647C125.662 67.6649 125.866 67.6989 126.06 67.749C126.253 67.7956 126.432 67.8618 126.597 67.9478C126.765 68.0337 126.91 68.1465 127.032 68.2861C127.157 68.4258 127.254 68.5941 127.322 68.791C127.393 68.988 127.429 69.2207 127.429 69.4893C127.429 69.9691 127.311 70.3504 127.075 70.6333C126.838 70.9126 126.466 71.0988 125.958 71.1919C126.316 71.217 126.622 71.2725 126.876 71.3584C127.134 71.4408 127.343 71.5553 127.504 71.7021C127.666 71.8454 127.784 72.0226 127.859 72.2339C127.934 72.4416 127.972 72.6851 127.972 72.9644ZM125.485 69.8062C125.485 69.7131 125.471 69.6253 125.442 69.543C125.413 69.457 125.361 69.3818 125.286 69.3174C125.211 69.2529 125.109 69.201 124.98 69.1616C124.851 69.1222 124.686 69.1025 124.486 69.1025H121.548V70.4883H124.486C124.686 70.4883 124.851 70.4704 124.98 70.4346C125.109 70.3988 125.211 70.3504 125.286 70.2896C125.361 70.2287 125.413 70.1571 125.442 70.0747C125.471 69.9888 125.485 69.8993 125.485 69.8062ZM125.947 72.7334C125.947 72.5651 125.918 72.4308 125.861 72.3306C125.804 72.2267 125.714 72.1479 125.592 72.0942C125.471 72.0369 125.313 71.9993 125.12 71.9814C124.926 71.9635 124.695 71.9546 124.427 71.9546H121.548V73.5176H124.427C124.695 73.5176 124.926 73.5086 125.12 73.4907C125.313 73.4728 125.471 73.4352 125.592 73.3779C125.714 73.3206 125.804 73.2419 125.861 73.1416C125.918 73.0378 125.947 72.9017 125.947 72.7334Z" fill="black"/>
<path d="M134.422 71.9868V75H132.435V71.9868L128.858 67.6201H131.092L133.434 70.5903L135.765 67.6201H138L134.422 71.9868Z" fill="black"/>
<path d="M143.51 75V67.6201H145.503V75H143.51Z" fill="black"/>
<path d="M156.234 72.9644C156.234 73.2508 156.197 73.4997 156.122 73.7109C156.046 73.9222 155.941 74.1048 155.805 74.2588C155.672 74.4092 155.511 74.5327 155.321 74.6294C155.135 74.7225 154.927 74.7977 154.698 74.855C154.473 74.9087 154.231 74.9463 153.973 74.9678C153.715 74.9893 153.449 75 153.173 75H147.818V67.6201H153.076C153.287 67.6201 153.499 67.6291 153.71 67.647C153.925 67.6649 154.129 67.6989 154.322 67.749C154.516 67.7956 154.695 67.8618 154.859 67.9478C155.028 68.0337 155.173 68.1465 155.294 68.2861C155.42 68.4258 155.516 68.5941 155.584 68.791C155.656 68.988 155.692 69.2207 155.692 69.4893C155.692 69.9691 155.574 70.3504 155.337 70.6333C155.101 70.9126 154.729 71.0988 154.22 71.1919C154.578 71.217 154.884 71.2725 155.139 71.3584C155.396 71.4408 155.606 71.5553 155.767 71.7021C155.928 71.8454 156.046 72.0226 156.122 72.2339C156.197 72.4416 156.234 72.6851 156.234 72.9644ZM153.748 69.8062C153.748 69.7131 153.733 69.6253 153.705 69.543C153.676 69.457 153.624 69.3818 153.549 69.3174C153.474 69.2529 153.372 69.201 153.243 69.1616C153.114 69.1222 152.949 69.1025 152.749 69.1025H149.811V70.4883H152.749C152.949 70.4883 153.114 70.4704 153.243 70.4346C153.372 70.3988 153.474 70.3504 153.549 70.2896C153.624 70.2287 153.676 70.1571 153.705 70.0747C153.733 69.9888 153.748 69.8993 153.748 69.8062ZM154.209 72.7334C154.209 72.5651 154.181 72.4308 154.124 72.3306C154.066 72.2267 153.977 72.1479 153.855 72.0942C153.733 72.0369 153.576 71.9993 153.382 71.9814C153.189 71.9635 152.958 71.9546 152.689 71.9546H149.811V73.5176H152.689C152.958 73.5176 153.189 73.5086 153.382 73.4907C153.576 73.4728 153.733 73.4352 153.855 73.3779C153.977 73.3206 154.066 73.2419 154.124 73.1416C154.181 73.0378 154.209 72.9017 154.209 72.7334Z" fill="black"/>
<path d="M160.048 75H158.055V67.6201H163.05C163.587 67.6201 164.042 67.6756 164.415 67.7866C164.791 67.8976 165.095 68.0552 165.328 68.2593C165.564 68.4634 165.734 68.7104 165.838 69.0005C165.945 69.2869 165.999 69.6074 165.999 69.9619C165.999 70.2734 165.954 70.5456 165.865 70.7783C165.779 71.0111 165.661 71.2116 165.51 71.3799C165.363 71.5446 165.192 71.6842 164.995 71.7988C164.798 71.9134 164.59 72.0083 164.372 72.0835L166.789 75H164.458L162.223 72.2822H160.048V75ZM163.985 69.9512C163.985 69.8079 163.965 69.6862 163.926 69.5859C163.89 69.4857 163.826 69.4051 163.732 69.3442C163.639 69.2798 163.514 69.2332 163.356 69.2046C163.202 69.1759 163.009 69.1616 162.776 69.1616H160.048V70.7407H162.776C163.009 70.7407 163.202 70.7264 163.356 70.6978C163.514 70.6691 163.639 70.6243 163.732 70.5635C163.826 70.499 163.89 70.4167 163.926 70.3164C163.965 70.2161 163.985 70.0944 163.985 69.9512Z" fill="black"/>
<path d="M174.147 73.6035H170.033L169.34 75H167.116L170.978 67.6201H173.202L177.063 75H174.84L174.147 73.6035ZM170.747 72.1641H173.443L172.101 69.4463L170.747 72.1641Z" fill="black"/>
<path d="M185.335 75V71.9224H180.265V75H178.272V67.6201H180.265V70.3057H185.335V67.6201H187.328V75H185.335Z" fill="black"/>
<path d="M189.637 75V67.6201H191.63V75H189.637Z" fill="black"/>
<path d="M203.328 75V69.8169L200.589 75H198.677L195.938 69.8169V75H193.945V67.6201H196.652L199.633 73.2061L202.614 67.6201H205.31V75H203.328Z" fill="black"/>
<mask id="path-2-inside-1" fill="white">
<path d="M7.69531 11.6016V20H4.79688V11.6016H0.242188V9.26562H12.2578V11.6016H7.69531Z"/>
<path d="M24.4531 20V15.5234H17.0781V20H14.1797V9.26562H17.0781V13.1719H24.4531V9.26562H27.3516V20H24.4531Z"/>
<path d="M30.7109 20V9.26562H41.5781V11.5547H33.6875V13.3281H41.1719V15.6172H33.6875V17.7109H41.6875V20H30.7109Z"/>
<path d="M68.3242 6.50586C67.9688 6.33268 67.4993 6.13672 66.916 5.91797C66.3327 5.69922 65.6719 5.49414 64.9336 5.30273C64.1953 5.10221 63.3932 4.93815 62.5273 4.81055C61.6615 4.67383 60.7728 4.60547 59.8613 4.60547C59.1322 4.60547 58.5078 4.62826 57.9883 4.67383C57.4779 4.7194 57.0449 4.77865 56.6895 4.85156C56.3431 4.92448 56.0651 5.01107 55.8555 5.11133C55.6549 5.20247 55.5 5.29818 55.3906 5.39844C55.2812 5.4987 55.2083 5.59896 55.1719 5.69922C55.1445 5.79948 55.1309 5.89062 55.1309 5.97266C55.1309 6.24609 55.2676 6.48763 55.541 6.69727C55.8145 6.89779 56.1882 7.08008 56.6621 7.24414C57.1361 7.39909 57.6875 7.54948 58.3164 7.69531C58.9453 7.83203 59.6107 7.97786 60.3125 8.13281C61.0234 8.27865 61.7526 8.44271 62.5 8.625C63.2565 8.79818 63.9857 9.00326 64.6875 9.24023C65.3984 9.47721 66.0684 9.75521 66.6973 10.0742C67.3262 10.3841 67.8776 10.7487 68.3516 11.168C68.8255 11.5872 69.1992 12.0703 69.4727 12.6172C69.7461 13.1641 69.8828 13.7884 69.8828 14.4902C69.8828 15.3926 69.7233 16.1673 69.4043 16.8145C69.0853 17.4616 68.6569 18.0085 68.1191 18.4551C67.5905 18.9017 66.9753 19.2617 66.2734 19.5352C65.5716 19.7995 64.8333 20.0046 64.0586 20.1504C63.293 20.2962 62.5137 20.3919 61.7207 20.4375C60.9368 20.4831 60.1895 20.5059 59.4785 20.5059C57.6191 20.5059 55.8965 20.3509 54.3105 20.041C52.7337 19.7402 51.3392 19.362 50.127 18.9062V14.4219C51.3757 15.1146 52.7975 15.6569 54.3926 16.0488C55.9967 16.4408 57.7103 16.6367 59.5332 16.6367C60.6087 16.6367 61.4837 16.582 62.1582 16.4727C62.8418 16.3542 63.375 16.2083 63.7578 16.0352C64.1406 15.8529 64.4004 15.6569 64.5371 15.4473C64.6738 15.2376 64.7422 15.0371 64.7422 14.8457C64.7422 14.5449 64.6055 14.2852 64.332 14.0664C64.0586 13.8385 63.6849 13.6426 63.2109 13.4785C62.737 13.3053 62.1855 13.1504 61.5566 13.0137C60.9277 12.8678 60.2578 12.7266 59.5469 12.5898C58.8451 12.444 58.1204 12.2891 57.373 12.125C56.6257 11.9609 55.8965 11.7695 55.1855 11.5508C54.4837 11.3229 53.8184 11.0632 53.1895 10.7715C52.5605 10.4707 52.0091 10.1198 51.5352 9.71875C51.0612 9.30859 50.6875 8.83919 50.4141 8.31055C50.1406 7.77279 50.0039 7.15299 50.0039 6.45117C50.0039 5.62174 50.1497 4.90625 50.4414 4.30469C50.7331 3.70312 51.125 3.19271 51.6172 2.77344C52.1185 2.34505 52.6927 1.9987 53.3398 1.73438C53.9961 1.47005 54.6842 1.26497 55.4043 1.11914C56.1243 0.973307 56.8535 0.873047 57.5918 0.818359C58.3301 0.763672 59.0319 0.736328 59.6973 0.736328C60.4264 0.736328 61.1738 0.772786 61.9395 0.845703C62.7142 0.91862 63.4753 1.02344 64.2227 1.16016C64.9701 1.28776 65.6901 1.43815 66.3828 1.61133C67.0846 1.78451 67.7318 1.9668 68.3242 2.1582V6.50586Z"/>
<path d="M99.0039 10.6211C99.0039 12.2344 98.7077 13.6608 98.1152 14.9004C97.5228 16.1309 96.6751 17.1608 95.5723 17.9902C94.4694 18.8197 93.1296 19.4486 91.5527 19.877C89.985 20.2962 88.2214 20.5059 86.2617 20.5059C84.3021 20.5059 82.5293 20.2962 80.9434 19.877C79.3665 19.4486 78.0221 18.8197 76.9102 17.9902C75.7982 17.1608 74.9414 16.1309 74.3398 14.9004C73.7383 13.6608 73.4375 12.2344 73.4375 10.6211C73.4375 9.00781 73.7383 7.58594 74.3398 6.35547C74.9414 5.11589 75.7982 4.08138 76.9102 3.25195C78.0221 2.42253 79.3665 1.79818 80.9434 1.37891C82.5293 0.950521 84.3021 0.736328 86.2617 0.736328C88.2214 0.736328 89.985 0.950521 91.5527 1.37891C93.1296 1.79818 94.4694 2.42253 95.5723 3.25195C96.6751 4.08138 97.5228 5.11589 98.1152 6.35547C98.7077 7.58594 99.0039 9.00781 99.0039 10.6211ZM93.877 10.6211C93.877 9.91927 93.763 9.22201 93.5352 8.5293C93.3164 7.82747 92.9199 7.19857 92.3457 6.64258C91.7806 6.08659 91.0059 5.63542 90.0215 5.28906C89.0371 4.94271 87.7839 4.76953 86.2617 4.76953C85.2409 4.76953 84.3431 4.85156 83.5684 5.01562C82.7936 5.17057 82.1237 5.38932 81.5586 5.67188C80.9935 5.95443 80.5195 6.28711 80.1367 6.66992C79.7539 7.04362 79.4486 7.44922 79.2207 7.88672C78.9928 8.3151 78.8288 8.76628 78.7285 9.24023C78.6374 9.70508 78.5918 10.1654 78.5918 10.6211C78.5918 11.0859 78.6374 11.5553 78.7285 12.0293C78.8288 12.5033 78.9928 12.959 79.2207 13.3965C79.4486 13.8249 79.7539 14.2259 80.1367 14.5996C80.5195 14.9733 80.9935 15.3014 81.5586 15.584C82.1237 15.8574 82.7936 16.0762 83.5684 16.2402C84.3431 16.3952 85.2409 16.4727 86.2617 16.4727C87.7839 16.4727 89.0371 16.2995 90.0215 15.9531C91.0059 15.6068 91.7806 15.1556 92.3457 14.5996C92.9199 14.0436 93.3164 13.4193 93.5352 12.7266C93.763 12.0247 93.877 11.3229 93.877 10.6211Z"/>
<path d="M125.801 13.6699C125.801 14.6087 125.568 15.4928 125.104 16.3223C124.639 17.1517 123.941 17.8763 123.012 18.4961C122.082 19.1159 120.92 19.6081 119.525 19.9727C118.14 20.3281 116.518 20.5059 114.658 20.5059C112.799 20.5059 111.167 20.3281 109.764 19.9727C108.369 19.6081 107.207 19.1159 106.277 18.4961C105.348 17.8763 104.65 17.1517 104.186 16.3223C103.721 15.4928 103.488 14.6087 103.488 13.6699V1.21484H108.547V11.8516C108.547 12.4805 108.624 13.0775 108.779 13.6426C108.943 14.1986 109.244 14.6862 109.682 15.1055C110.128 15.5247 110.748 15.8574 111.541 16.1035C112.343 16.3496 113.382 16.4727 114.658 16.4727C115.925 16.4727 116.955 16.3496 117.748 16.1035C118.541 15.8574 119.156 15.5247 119.594 15.1055C120.04 14.6862 120.341 14.1986 120.496 13.6426C120.651 13.0775 120.729 12.4805 120.729 11.8516V1.21484H125.801V13.6699Z"/>
<path d="M149.289 20L136.615 7.09375V20H131.543V1.21484H137.053L149.74 14.1758V1.21484H154.785V20H149.289Z"/>
<path d="M183.674 10.5938C183.674 11.7969 183.542 12.8678 183.277 13.8066C183.013 14.7363 182.639 15.5475 182.156 16.2402C181.682 16.9329 181.108 17.5208 180.434 18.0039C179.768 18.487 179.025 18.8743 178.205 19.166C177.385 19.4577 176.501 19.6719 175.553 19.8086C174.605 19.9362 173.616 20 172.586 20H160.664V1.21484H172.559C173.589 1.21484 174.577 1.2832 175.525 1.41992C176.473 1.54753 177.357 1.75716 178.178 2.04883C179.007 2.34049 179.759 2.72786 180.434 3.21094C181.108 3.6849 181.682 4.27279 182.156 4.97461C182.639 5.66732 183.013 6.47852 183.277 7.4082C183.542 8.33789 183.674 9.39974 183.674 10.5938ZM178.561 10.5938C178.561 9.69141 178.442 8.90755 178.205 8.24219C177.977 7.57682 177.604 7.02995 177.084 6.60156C176.574 6.16406 175.904 5.84049 175.074 5.63086C174.245 5.41211 173.233 5.30273 172.039 5.30273H165.736V15.9121H172.039C173.233 15.9121 174.245 15.8073 175.074 15.5977C175.904 15.3789 176.574 15.0508 177.084 14.6133C177.604 14.1667 177.977 13.6107 178.205 12.9453C178.442 12.2799 178.561 11.4961 178.561 10.5938Z"/>
<path d="M205.617 6.50586C205.262 6.33268 204.792 6.13672 204.209 5.91797C203.626 5.69922 202.965 5.49414 202.227 5.30273C201.488 5.10221 200.686 4.93815 199.82 4.81055C198.954 4.67383 198.066 4.60547 197.154 4.60547C196.425 4.60547 195.801 4.62826 195.281 4.67383C194.771 4.7194 194.338 4.77865 193.982 4.85156C193.636 4.92448 193.358 5.01107 193.148 5.11133C192.948 5.20247 192.793 5.29818 192.684 5.39844C192.574 5.4987 192.501 5.59896 192.465 5.69922C192.438 5.79948 192.424 5.89062 192.424 5.97266C192.424 6.24609 192.561 6.48763 192.834 6.69727C193.107 6.89779 193.481 7.08008 193.955 7.24414C194.429 7.39909 194.98 7.54948 195.609 7.69531C196.238 7.83203 196.904 7.97786 197.605 8.13281C198.316 8.27865 199.046 8.44271 199.793 8.625C200.549 8.79818 201.279 9.00326 201.98 9.24023C202.691 9.47721 203.361 9.75521 203.99 10.0742C204.619 10.3841 205.171 10.7487 205.645 11.168C206.118 11.5872 206.492 12.0703 206.766 12.6172C207.039 13.1641 207.176 13.7884 207.176 14.4902C207.176 15.3926 207.016 16.1673 206.697 16.8145C206.378 17.4616 205.95 18.0085 205.412 18.4551C204.883 18.9017 204.268 19.2617 203.566 19.5352C202.865 19.7995 202.126 20.0046 201.352 20.1504C200.586 20.2962 199.807 20.3919 199.014 20.4375C198.23 20.4831 197.482 20.5059 196.771 20.5059C194.912 20.5059 193.189 20.3509 191.604 20.041C190.027 19.7402 188.632 19.362 187.42 18.9062V14.4219C188.669 15.1146 190.09 15.6569 191.686 16.0488C193.29 16.4408 195.003 16.6367 196.826 16.6367C197.902 16.6367 198.777 16.582 199.451 16.4727C200.135 16.3542 200.668 16.2083 201.051 16.0352C201.434 15.8529 201.693 15.6569 201.83 15.4473C201.967 15.2376 202.035 15.0371 202.035 14.8457C202.035 14.5449 201.898 14.2852 201.625 14.0664C201.352 13.8385 200.978 13.6426 200.504 13.4785C200.03 13.3053 199.479 13.1504 198.85 13.0137C198.221 12.8678 197.551 12.7266 196.84 12.5898C196.138 12.444 195.413 12.2891 194.666 12.125C193.919 11.9609 193.189 11.7695 192.479 11.5508C191.777 11.3229 191.111 11.0632 190.482 10.7715C189.854 10.4707 189.302 10.1198 188.828 9.71875C188.354 9.30859 187.98 8.83919 187.707 8.31055C187.434 7.77279 187.297 7.15299 187.297 6.45117C187.297 5.62174 187.443 4.90625 187.734 4.30469C188.026 3.70312 188.418 3.19271 188.91 2.77344C189.411 2.34505 189.986 1.9987 190.633 1.73438C191.289 1.47005 191.977 1.26497 192.697 1.11914C193.417 0.973307 194.146 0.873047 194.885 0.818359C195.623 0.763672 196.325 0.736328 196.99 0.736328C197.719 0.736328 198.467 0.772786 199.232 0.845703C200.007 0.91862 200.768 1.02344 201.516 1.16016C202.263 1.28776 202.983 1.43815 203.676 1.61133C204.378 1.78451 205.025 1.9668 205.617 2.1582V6.50586Z"/>
<path d="M29.1943 36.9512C29.1943 38.6797 28.877 40.208 28.2422 41.5361C27.6074 42.8545 26.6992 43.958 25.5176 44.8467C24.3359 45.7354 22.9004 46.4092 21.2109 46.8682C19.5312 47.3174 17.6416 47.542 15.542 47.542C13.4424 47.542 11.543 47.3174 9.84375 46.8682C8.1543 46.4092 6.71387 45.7354 5.52246 44.8467C4.33105 43.958 3.41309 42.8545 2.76855 41.5361C2.12402 40.208 1.80176 38.6797 1.80176 36.9512C1.80176 35.2227 2.12402 33.6992 2.76855 32.3809C3.41309 31.0527 4.33105 29.9443 5.52246 29.0557C6.71387 28.167 8.1543 27.498 9.84375 27.0488C11.543 26.5898 13.4424 26.3604 15.542 26.3604C17.6416 26.3604 19.5312 26.5898 21.2109 27.0488C22.9004 27.498 24.3359 28.167 25.5176 29.0557C26.6992 29.9443 27.6074 31.0527 28.2422 32.3809C28.877 33.6992 29.1943 35.2227 29.1943 36.9512ZM23.7012 36.9512C23.7012 36.1992 23.5791 35.4521 23.335 34.71C23.1006 33.958 22.6758 33.2842 22.0605 32.6885C21.4551 32.0928 20.625 31.6094 19.5703 31.2383C18.5156 30.8672 17.1729 30.6816 15.542 30.6816C14.4482 30.6816 13.4863 30.7695 12.6562 30.9453C11.8262 31.1113 11.1084 31.3457 10.5029 31.6484C9.89746 31.9512 9.38965 32.3076 8.97949 32.7178C8.56934 33.1182 8.24219 33.5527 7.99805 34.0215C7.75391 34.4805 7.57812 34.9639 7.4707 35.4717C7.37305 35.9697 7.32422 36.4629 7.32422 36.9512C7.32422 37.4492 7.37305 37.9521 7.4707 38.46C7.57812 38.9678 7.75391 39.4561 7.99805 39.9248C8.24219 40.3838 8.56934 40.8135 8.97949 41.2139C9.38965 41.6143 9.89746 41.9658 10.5029 42.2686C11.1084 42.5615 11.8262 42.7959 12.6562 42.9717C13.4863 43.1377 14.4482 43.2207 15.542 43.2207C17.1729 43.2207 18.5156 43.0352 19.5703 42.6641C20.625 42.293 21.4551 41.8096 22.0605 41.2139C22.6758 40.6182 23.1006 39.9492 23.335 39.207C23.5791 38.4551 23.7012 37.7031 23.7012 36.9512Z"/>
<path d="M39.5801 31.165V34.666H52.6611V38.958H39.5801V47H34.1455V26.873H53.3789V31.165H39.5801Z"/>
<path d="M75.3018 47V26.873H80.7363V42.5908H95.4287V47H75.3018Z"/>
<path d="M115.966 43.1914H104.745L102.855 47H96.791L107.323 26.873H113.388L123.92 47H117.855L115.966 43.1914ZM106.693 39.2656H114.047L110.385 31.8535L106.693 39.2656Z"/>
<path d="M139.887 26.3604C141.859 26.3604 143.69 26.5312 145.38 26.873C147.079 27.2051 148.637 27.6348 150.053 28.1621V33.084C149.496 32.7715 148.866 32.4688 148.163 32.1758C147.47 31.8828 146.713 31.624 145.893 31.3994C145.072 31.1748 144.193 30.9941 143.256 30.8574C142.318 30.7207 141.332 30.6523 140.297 30.6523C139.008 30.6523 137.885 30.7451 136.928 30.9307C135.971 31.1162 135.15 31.3652 134.467 31.6777C133.783 31.9902 133.222 32.3564 132.782 32.7764C132.343 33.1865 131.996 33.626 131.742 34.0947C131.488 34.5635 131.312 35.042 131.215 35.5303C131.117 36.0186 131.068 36.4922 131.068 36.9512C131.068 37.3516 131.107 37.7861 131.186 38.2549C131.273 38.7236 131.43 39.1924 131.654 39.6611C131.889 40.1299 132.211 40.5791 132.621 41.0088C133.031 41.4385 133.563 41.8193 134.218 42.1514C134.882 42.4834 135.678 42.752 136.605 42.957C137.533 43.1523 138.637 43.25 139.916 43.25C140.561 43.25 141.122 43.2305 141.601 43.1914C142.079 43.1523 142.514 43.0986 142.904 43.0303C143.305 42.9619 143.676 42.8789 144.018 42.7812C144.369 42.6836 144.73 42.5811 145.102 42.4736V40.042H139.008V35.6328H150.536V45.916C149.813 46.1602 149.003 46.3848 148.104 46.5898C147.216 46.7852 146.293 46.9512 145.336 47.0879C144.389 47.2344 143.437 47.3467 142.479 47.4248C141.522 47.5029 140.619 47.542 139.77 47.542C138.451 47.542 137.187 47.4541 135.976 47.2783C134.765 47.1025 133.632 46.834 132.577 46.4727C131.532 46.1016 130.575 45.6328 129.706 45.0664C128.847 44.5 128.109 43.8262 127.494 43.0449C126.889 42.2637 126.415 41.3701 126.073 40.3643C125.741 39.3486 125.575 38.2109 125.575 36.9512C125.575 35.7012 125.751 34.5684 126.103 33.5527C126.454 32.5371 126.942 31.6387 127.567 30.8574C128.202 30.0762 128.959 29.4023 129.838 28.8359C130.727 28.2695 131.698 27.8057 132.753 27.4443C133.817 27.0732 134.95 26.7998 136.151 26.624C137.362 26.4482 138.607 26.3604 139.887 26.3604Z"/>
<path d="M182.44 36.9512C182.44 38.6797 182.123 40.208 181.488 41.5361C180.854 42.8545 179.945 43.958 178.764 44.8467C177.582 45.7354 176.146 46.4092 174.457 46.8682C172.777 47.3174 170.888 47.542 168.788 47.542C166.688 47.542 164.789 47.3174 163.09 46.8682C161.4 46.4092 159.96 45.7354 158.769 44.8467C157.577 43.958 156.659 42.8545 156.015 41.5361C155.37 40.208 155.048 38.6797 155.048 36.9512C155.048 35.2227 155.37 33.6992 156.015 32.3809C156.659 31.0527 157.577 29.9443 158.769 29.0557C159.96 28.167 161.4 27.498 163.09 27.0488C164.789 26.5898 166.688 26.3604 168.788 26.3604C170.888 26.3604 172.777 26.5898 174.457 27.0488C176.146 27.498 177.582 28.167 178.764 29.0557C179.945 29.9443 180.854 31.0527 181.488 32.3809C182.123 33.6992 182.44 35.2227 182.44 36.9512ZM176.947 36.9512C176.947 36.1992 176.825 35.4521 176.581 34.71C176.347 33.958 175.922 33.2842 175.307 32.6885C174.701 32.0928 173.871 31.6094 172.816 31.2383C171.762 30.8672 170.419 30.6816 168.788 30.6816C167.694 30.6816 166.732 30.7695 165.902 30.9453C165.072 31.1113 164.354 31.3457 163.749 31.6484C163.144 31.9512 162.636 32.3076 162.226 32.7178C161.815 33.1182 161.488 33.5527 161.244 34.0215C161 34.4805 160.824 34.9639 160.717 35.4717C160.619 35.9697 160.57 36.4629 160.57 36.9512C160.57 37.4492 160.619 37.9521 160.717 38.46C160.824 38.9678 161 39.4561 161.244 39.9248C161.488 40.3838 161.815 40.8135 162.226 41.2139C162.636 41.6143 163.144 41.9658 163.749 42.2686C164.354 42.5615 165.072 42.7959 165.902 42.9717C166.732 43.1377 167.694 43.2207 168.788 43.2207C170.419 43.2207 171.762 43.0352 172.816 42.6641C173.871 42.293 174.701 41.8096 175.307 41.2139C175.922 40.6182 176.347 39.9492 176.581 39.207C176.825 38.4551 176.947 37.7031 176.947 36.9512Z"/>
<path d="M205.937 32.542C205.556 32.3564 205.053 32.1465 204.428 31.9121C203.803 31.6777 203.095 31.458 202.304 31.2529C201.513 31.0381 200.653 30.8623 199.726 30.7256C198.798 30.5791 197.846 30.5059 196.869 30.5059C196.088 30.5059 195.419 30.5303 194.862 30.5791C194.315 30.6279 193.852 30.6914 193.471 30.7695C193.1 30.8477 192.802 30.9404 192.577 31.0479C192.362 31.1455 192.196 31.248 192.079 31.3555C191.962 31.4629 191.884 31.5703 191.845 31.6777C191.815 31.7852 191.801 31.8828 191.801 31.9707C191.801 32.2637 191.947 32.5225 192.24 32.7471C192.533 32.9619 192.934 33.1572 193.441 33.333C193.949 33.499 194.54 33.6602 195.214 33.8164C195.888 33.9629 196.601 34.1191 197.353 34.2852C198.114 34.4414 198.896 34.6172 199.696 34.8125C200.507 34.998 201.288 35.2178 202.04 35.4717C202.802 35.7256 203.52 36.0234 204.193 36.3652C204.867 36.6973 205.458 37.0879 205.966 37.5371C206.474 37.9863 206.874 38.5039 207.167 39.0898C207.46 39.6758 207.606 40.3447 207.606 41.0967C207.606 42.0635 207.436 42.8936 207.094 43.5869C206.752 44.2803 206.293 44.8662 205.717 45.3447C205.15 45.8232 204.491 46.209 203.739 46.502C202.987 46.7852 202.196 47.0049 201.366 47.1611C200.546 47.3174 199.711 47.4199 198.861 47.4688C198.021 47.5176 197.221 47.542 196.459 47.542C194.467 47.542 192.621 47.376 190.922 47.0439C189.232 46.7217 187.738 46.3164 186.439 45.8281V41.0234C187.777 41.7656 189.301 42.3467 191.01 42.7666C192.729 43.1865 194.564 43.3965 196.518 43.3965C197.67 43.3965 198.607 43.3379 199.33 43.2207C200.062 43.0938 200.634 42.9375 201.044 42.752C201.454 42.5566 201.732 42.3467 201.879 42.1221C202.025 41.8975 202.099 41.6826 202.099 41.4775C202.099 41.1553 201.952 40.877 201.659 40.6426C201.366 40.3984 200.966 40.1885 200.458 40.0127C199.95 39.8271 199.359 39.6611 198.686 39.5146C198.012 39.3584 197.294 39.207 196.532 39.0605C195.78 38.9043 195.004 38.7383 194.203 38.5625C193.402 38.3867 192.621 38.1816 191.859 37.9473C191.107 37.7031 190.395 37.4248 189.721 37.1123C189.047 36.79 188.456 36.4141 187.948 35.9844C187.44 35.5449 187.04 35.042 186.747 34.4756C186.454 33.8994 186.308 33.2354 186.308 32.4834C186.308 31.5947 186.464 30.8281 186.776 30.1836C187.089 29.5391 187.509 28.9922 188.036 28.543C188.573 28.084 189.188 27.7129 189.882 27.4297C190.585 27.1465 191.322 26.9268 192.094 26.7705C192.865 26.6143 193.646 26.5068 194.438 26.4482C195.229 26.3896 195.98 26.3604 196.693 26.3604C197.475 26.3604 198.275 26.3994 199.096 26.4775C199.926 26.5557 200.741 26.668 201.542 26.8145C202.343 26.9512 203.114 27.1123 203.856 27.2979C204.608 27.4834 205.302 27.6787 205.937 27.8838V32.542Z"/>
</mask>
<path d="M7.69531 11.6016V20H4.79688V11.6016H0.242188V9.26562H12.2578V11.6016H7.69531Z" fill="white"/>
<path d="M24.4531 20V15.5234H17.0781V20H14.1797V9.26562H17.0781V13.1719H24.4531V9.26562H27.3516V20H24.4531Z" fill="white"/>
<path d="M30.7109 20V9.26562H41.5781V11.5547H33.6875V13.3281H41.1719V15.6172H33.6875V17.7109H41.6875V20H30.7109Z" fill="white"/>
<path d="M68.3242 6.50586C67.9688 6.33268 67.4993 6.13672 66.916 5.91797C66.3327 5.69922 65.6719 5.49414 64.9336 5.30273C64.1953 5.10221 63.3932 4.93815 62.5273 4.81055C61.6615 4.67383 60.7728 4.60547 59.8613 4.60547C59.1322 4.60547 58.5078 4.62826 57.9883 4.67383C57.4779 4.7194 57.0449 4.77865 56.6895 4.85156C56.3431 4.92448 56.0651 5.01107 55.8555 5.11133C55.6549 5.20247 55.5 5.29818 55.3906 5.39844C55.2812 5.4987 55.2083 5.59896 55.1719 5.69922C55.1445 5.79948 55.1309 5.89062 55.1309 5.97266C55.1309 6.24609 55.2676 6.48763 55.541 6.69727C55.8145 6.89779 56.1882 7.08008 56.6621 7.24414C57.1361 7.39909 57.6875 7.54948 58.3164 7.69531C58.9453 7.83203 59.6107 7.97786 60.3125 8.13281C61.0234 8.27865 61.7526 8.44271 62.5 8.625C63.2565 8.79818 63.9857 9.00326 64.6875 9.24023C65.3984 9.47721 66.0684 9.75521 66.6973 10.0742C67.3262 10.3841 67.8776 10.7487 68.3516 11.168C68.8255 11.5872 69.1992 12.0703 69.4727 12.6172C69.7461 13.1641 69.8828 13.7884 69.8828 14.4902C69.8828 15.3926 69.7233 16.1673 69.4043 16.8145C69.0853 17.4616 68.6569 18.0085 68.1191 18.4551C67.5905 18.9017 66.9753 19.2617 66.2734 19.5352C65.5716 19.7995 64.8333 20.0046 64.0586 20.1504C63.293 20.2962 62.5137 20.3919 61.7207 20.4375C60.9368 20.4831 60.1895 20.5059 59.4785 20.5059C57.6191 20.5059 55.8965 20.3509 54.3105 20.041C52.7337 19.7402 51.3392 19.362 50.127 18.9062V14.4219C51.3757 15.1146 52.7975 15.6569 54.3926 16.0488C55.9967 16.4408 57.7103 16.6367 59.5332 16.6367C60.6087 16.6367 61.4837 16.582 62.1582 16.4727C62.8418 16.3542 63.375 16.2083 63.7578 16.0352C64.1406 15.8529 64.4004 15.6569 64.5371 15.4473C64.6738 15.2376 64.7422 15.0371 64.7422 14.8457C64.7422 14.5449 64.6055 14.2852 64.332 14.0664C64.0586 13.8385 63.6849 13.6426 63.2109 13.4785C62.737 13.3053 62.1855 13.1504 61.5566 13.0137C60.9277 12.8678 60.2578 12.7266 59.5469 12.5898C58.8451 12.444 58.1204 12.2891 57.373 12.125C56.6257 11.9609 55.8965 11.7695 55.1855 11.5508C54.4837 11.3229 53.8184 11.0632 53.1895 10.7715C52.5605 10.4707 52.0091 10.1198 51.5352 9.71875C51.0612 9.30859 50.6875 8.83919 50.4141 8.31055C50.1406 7.77279 50.0039 7.15299 50.0039 6.45117C50.0039 5.62174 50.1497 4.90625 50.4414 4.30469C50.7331 3.70312 51.125 3.19271 51.6172 2.77344C52.1185 2.34505 52.6927 1.9987 53.3398 1.73438C53.9961 1.47005 54.6842 1.26497 55.4043 1.11914C56.1243 0.973307 56.8535 0.873047 57.5918 0.818359C58.3301 0.763672 59.0319 0.736328 59.6973 0.736328C60.4264 0.736328 61.1738 0.772786 61.9395 0.845703C62.7142 0.91862 63.4753 1.02344 64.2227 1.16016C64.9701 1.28776 65.6901 1.43815 66.3828 1.61133C67.0846 1.78451 67.7318 1.9668 68.3242 2.1582V6.50586Z" fill="white"/>
<path d="M99.0039 10.6211C99.0039 12.2344 98.7077 13.6608 98.1152 14.9004C97.5228 16.1309 96.6751 17.1608 95.5723 17.9902C94.4694 18.8197 93.1296 19.4486 91.5527 19.877C89.985 20.2962 88.2214 20.5059 86.2617 20.5059C84.3021 20.5059 82.5293 20.2962 80.9434 19.877C79.3665 19.4486 78.0221 18.8197 76.9102 17.9902C75.7982 17.1608 74.9414 16.1309 74.3398 14.9004C73.7383 13.6608 73.4375 12.2344 73.4375 10.6211C73.4375 9.00781 73.7383 7.58594 74.3398 6.35547C74.9414 5.11589 75.7982 4.08138 76.9102 3.25195C78.0221 2.42253 79.3665 1.79818 80.9434 1.37891C82.5293 0.950521 84.3021 0.736328 86.2617 0.736328C88.2214 0.736328 89.985 0.950521 91.5527 1.37891C93.1296 1.79818 94.4694 2.42253 95.5723 3.25195C96.6751 4.08138 97.5228 5.11589 98.1152 6.35547C98.7077 7.58594 99.0039 9.00781 99.0039 10.6211ZM93.877 10.6211C93.877 9.91927 93.763 9.22201 93.5352 8.5293C93.3164 7.82747 92.9199 7.19857 92.3457 6.64258C91.7806 6.08659 91.0059 5.63542 90.0215 5.28906C89.0371 4.94271 87.7839 4.76953 86.2617 4.76953C85.2409 4.76953 84.3431 4.85156 83.5684 5.01562C82.7936 5.17057 82.1237 5.38932 81.5586 5.67188C80.9935 5.95443 80.5195 6.28711 80.1367 6.66992C79.7539 7.04362 79.4486 7.44922 79.2207 7.88672C78.9928 8.3151 78.8288 8.76628 78.7285 9.24023C78.6374 9.70508 78.5918 10.1654 78.5918 10.6211C78.5918 11.0859 78.6374 11.5553 78.7285 12.0293C78.8288 12.5033 78.9928 12.959 79.2207 13.3965C79.4486 13.8249 79.7539 14.2259 80.1367 14.5996C80.5195 14.9733 80.9935 15.3014 81.5586 15.584C82.1237 15.8574 82.7936 16.0762 83.5684 16.2402C84.3431 16.3952 85.2409 16.4727 86.2617 16.4727C87.7839 16.4727 89.0371 16.2995 90.0215 15.9531C91.0059 15.6068 91.7806 15.1556 92.3457 14.5996C92.9199 14.0436 93.3164 13.4193 93.5352 12.7266C93.763 12.0247 93.877 11.3229 93.877 10.6211Z" fill="white"/>
<path d="M125.801 13.6699C125.801 14.6087 125.568 15.4928 125.104 16.3223C124.639 17.1517 123.941 17.8763 123.012 18.4961C122.082 19.1159 120.92 19.6081 119.525 19.9727C118.14 20.3281 116.518 20.5059 114.658 20.5059C112.799 20.5059 111.167 20.3281 109.764 19.9727C108.369 19.6081 107.207 19.1159 106.277 18.4961C105.348 17.8763 104.65 17.1517 104.186 16.3223C103.721 15.4928 103.488 14.6087 103.488 13.6699V1.21484H108.547V11.8516C108.547 12.4805 108.624 13.0775 108.779 13.6426C108.943 14.1986 109.244 14.6862 109.682 15.1055C110.128 15.5247 110.748 15.8574 111.541 16.1035C112.343 16.3496 113.382 16.4727 114.658 16.4727C115.925 16.4727 116.955 16.3496 117.748 16.1035C118.541 15.8574 119.156 15.5247 119.594 15.1055C120.04 14.6862 120.341 14.1986 120.496 13.6426C120.651 13.0775 120.729 12.4805 120.729 11.8516V1.21484H125.801V13.6699Z" fill="white"/>
<path d="M149.289 20L136.615 7.09375V20H131.543V1.21484H137.053L149.74 14.1758V1.21484H154.785V20H149.289Z" fill="white"/>
<path d="M183.674 10.5938C183.674 11.7969 183.542 12.8678 183.277 13.8066C183.013 14.7363 182.639 15.5475 182.156 16.2402C181.682 16.9329 181.108 17.5208 180.434 18.0039C179.768 18.487 179.025 18.8743 178.205 19.166C177.385 19.4577 176.501 19.6719 175.553 19.8086C174.605 19.9362 173.616 20 172.586 20H160.664V1.21484H172.559C173.589 1.21484 174.577 1.2832 175.525 1.41992C176.473 1.54753 177.357 1.75716 178.178 2.04883C179.007 2.34049 179.759 2.72786 180.434 3.21094C181.108 3.6849 181.682 4.27279 182.156 4.97461C182.639 5.66732 183.013 6.47852 183.277 7.4082C183.542 8.33789 183.674 9.39974 183.674 10.5938ZM178.561 10.5938C178.561 9.69141 178.442 8.90755 178.205 8.24219C177.977 7.57682 177.604 7.02995 177.084 6.60156C176.574 6.16406 175.904 5.84049 175.074 5.63086C174.245 5.41211 173.233 5.30273 172.039 5.30273H165.736V15.9121H172.039C173.233 15.9121 174.245 15.8073 175.074 15.5977C175.904 15.3789 176.574 15.0508 177.084 14.6133C177.604 14.1667 177.977 13.6107 178.205 12.9453C178.442 12.2799 178.561 11.4961 178.561 10.5938Z" fill="white"/>
<path d="M205.617 6.50586C205.262 6.33268 204.792 6.13672 204.209 5.91797C203.626 5.69922 202.965 5.49414 202.227 5.30273C201.488 5.10221 200.686 4.93815 199.82 4.81055C198.954 4.67383 198.066 4.60547 197.154 4.60547C196.425 4.60547 195.801 4.62826 195.281 4.67383C194.771 4.7194 194.338 4.77865 193.982 4.85156C193.636 4.92448 193.358 5.01107 193.148 5.11133C192.948 5.20247 192.793 5.29818 192.684 5.39844C192.574 5.4987 192.501 5.59896 192.465 5.69922C192.438 5.79948 192.424 5.89062 192.424 5.97266C192.424 6.24609 192.561 6.48763 192.834 6.69727C193.107 6.89779 193.481 7.08008 193.955 7.24414C194.429 7.39909 194.98 7.54948 195.609 7.69531C196.238 7.83203 196.904 7.97786 197.605 8.13281C198.316 8.27865 199.046 8.44271 199.793 8.625C200.549 8.79818 201.279 9.00326 201.98 9.24023C202.691 9.47721 203.361 9.75521 203.99 10.0742C204.619 10.3841 205.171 10.7487 205.645 11.168C206.118 11.5872 206.492 12.0703 206.766 12.6172C207.039 13.1641 207.176 13.7884 207.176 14.4902C207.176 15.3926 207.016 16.1673 206.697 16.8145C206.378 17.4616 205.95 18.0085 205.412 18.4551C204.883 18.9017 204.268 19.2617 203.566 19.5352C202.865 19.7995 202.126 20.0046 201.352 20.1504C200.586 20.2962 199.807 20.3919 199.014 20.4375C198.23 20.4831 197.482 20.5059 196.771 20.5059C194.912 20.5059 193.189 20.3509 191.604 20.041C190.027 19.7402 188.632 19.362 187.42 18.9062V14.4219C188.669 15.1146 190.09 15.6569 191.686 16.0488C193.29 16.4408 195.003 16.6367 196.826 16.6367C197.902 16.6367 198.777 16.582 199.451 16.4727C200.135 16.3542 200.668 16.2083 201.051 16.0352C201.434 15.8529 201.693 15.6569 201.83 15.4473C201.967 15.2376 202.035 15.0371 202.035 14.8457C202.035 14.5449 201.898 14.2852 201.625 14.0664C201.352 13.8385 200.978 13.6426 200.504 13.4785C200.03 13.3053 199.479 13.1504 198.85 13.0137C198.221 12.8678 197.551 12.7266 196.84 12.5898C196.138 12.444 195.413 12.2891 194.666 12.125C193.919 11.9609 193.189 11.7695 192.479 11.5508C191.777 11.3229 191.111 11.0632 190.482 10.7715C189.854 10.4707 189.302 10.1198 188.828 9.71875C188.354 9.30859 187.98 8.83919 187.707 8.31055C187.434 7.77279 187.297 7.15299 187.297 6.45117C187.297 5.62174 187.443 4.90625 187.734 4.30469C188.026 3.70312 188.418 3.19271 188.91 2.77344C189.411 2.34505 189.986 1.9987 190.633 1.73438C191.289 1.47005 191.977 1.26497 192.697 1.11914C193.417 0.973307 194.146 0.873047 194.885 0.818359C195.623 0.763672 196.325 0.736328 196.99 0.736328C197.719 0.736328 198.467 0.772786 199.232 0.845703C200.007 0.91862 200.768 1.02344 201.516 1.16016C202.263 1.28776 202.983 1.43815 203.676 1.61133C204.378 1.78451 205.025 1.9668 205.617 2.1582V6.50586Z" fill="white"/>
<path d="M29.1943 36.9512C29.1943 38.6797 28.877 40.208 28.2422 41.5361C27.6074 42.8545 26.6992 43.958 25.5176 44.8467C24.3359 45.7354 22.9004 46.4092 21.2109 46.8682C19.5312 47.3174 17.6416 47.542 15.542 47.542C13.4424 47.542 11.543 47.3174 9.84375 46.8682C8.1543 46.4092 6.71387 45.7354 5.52246 44.8467C4.33105 43.958 3.41309 42.8545 2.76855 41.5361C2.12402 40.208 1.80176 38.6797 1.80176 36.9512C1.80176 35.2227 2.12402 33.6992 2.76855 32.3809C3.41309 31.0527 4.33105 29.9443 5.52246 29.0557C6.71387 28.167 8.1543 27.498 9.84375 27.0488C11.543 26.5898 13.4424 26.3604 15.542 26.3604C17.6416 26.3604 19.5312 26.5898 21.2109 27.0488C22.9004 27.498 24.3359 28.167 25.5176 29.0557C26.6992 29.9443 27.6074 31.0527 28.2422 32.3809C28.877 33.6992 29.1943 35.2227 29.1943 36.9512ZM23.7012 36.9512C23.7012 36.1992 23.5791 35.4521 23.335 34.71C23.1006 33.958 22.6758 33.2842 22.0605 32.6885C21.4551 32.0928 20.625 31.6094 19.5703 31.2383C18.5156 30.8672 17.1729 30.6816 15.542 30.6816C14.4482 30.6816 13.4863 30.7695 12.6562 30.9453C11.8262 31.1113 11.1084 31.3457 10.5029 31.6484C9.89746 31.9512 9.38965 32.3076 8.97949 32.7178C8.56934 33.1182 8.24219 33.5527 7.99805 34.0215C7.75391 34.4805 7.57812 34.9639 7.4707 35.4717C7.37305 35.9697 7.32422 36.4629 7.32422 36.9512C7.32422 37.4492 7.37305 37.9521 7.4707 38.46C7.57812 38.9678 7.75391 39.4561 7.99805 39.9248C8.24219 40.3838 8.56934 40.8135 8.97949 41.2139C9.38965 41.6143 9.89746 41.9658 10.5029 42.2686C11.1084 42.5615 11.8262 42.7959 12.6562 42.9717C13.4863 43.1377 14.4482 43.2207 15.542 43.2207C17.1729 43.2207 18.5156 43.0352 19.5703 42.6641C20.625 42.293 21.4551 41.8096 22.0605 41.2139C22.6758 40.6182 23.1006 39.9492 23.335 39.207C23.5791 38.4551 23.7012 37.7031 23.7012 36.9512Z" fill="white"/>
<path d="M39.5801 31.165V34.666H52.6611V38.958H39.5801V47H34.1455V26.873H53.3789V31.165H39.5801Z" fill="white"/>
<path d="M75.3018 47V26.873H80.7363V42.5908H95.4287V47H75.3018Z" fill="white"/>
<path d="M115.966 43.1914H104.745L102.855 47H96.791L107.323 26.873H113.388L123.92 47H117.855L115.966 43.1914ZM106.693 39.2656H114.047L110.385 31.8535L106.693 39.2656Z" fill="white"/>
<path d="M139.887 26.3604C141.859 26.3604 143.69 26.5312 145.38 26.873C147.079 27.2051 148.637 27.6348 150.053 28.1621V33.084C149.496 32.7715 148.866 32.4688 148.163 32.1758C147.47 31.8828 146.713 31.624 145.893 31.3994C145.072 31.1748 144.193 30.9941 143.256 30.8574C142.318 30.7207 141.332 30.6523 140.297 30.6523C139.008 30.6523 137.885 30.7451 136.928 30.9307C135.971 31.1162 135.15 31.3652 134.467 31.6777C133.783 31.9902 133.222 32.3564 132.782 32.7764C132.343 33.1865 131.996 33.626 131.742 34.0947C131.488 34.5635 131.312 35.042 131.215 35.5303C131.117 36.0186 131.068 36.4922 131.068 36.9512C131.068 37.3516 131.107 37.7861 131.186 38.2549C131.273 38.7236 131.43 39.1924 131.654 39.6611C131.889 40.1299 132.211 40.5791 132.621 41.0088C133.031 41.4385 133.563 41.8193 134.218 42.1514C134.882 42.4834 135.678 42.752 136.605 42.957C137.533 43.1523 138.637 43.25 139.916 43.25C140.561 43.25 141.122 43.2305 141.601 43.1914C142.079 43.1523 142.514 43.0986 142.904 43.0303C143.305 42.9619 143.676 42.8789 144.018 42.7812C144.369 42.6836 144.73 42.5811 145.102 42.4736V40.042H139.008V35.6328H150.536V45.916C149.813 46.1602 149.003 46.3848 148.104 46.5898C147.216 46.7852 146.293 46.9512 145.336 47.0879C144.389 47.2344 143.437 47.3467 142.479 47.4248C141.522 47.5029 140.619 47.542 139.77 47.542C138.451 47.542 137.187 47.4541 135.976 47.2783C134.765 47.1025 133.632 46.834 132.577 46.4727C131.532 46.1016 130.575 45.6328 129.706 45.0664C128.847 44.5 128.109 43.8262 127.494 43.0449C126.889 42.2637 126.415 41.3701 126.073 40.3643C125.741 39.3486 125.575 38.2109 125.575 36.9512C125.575 35.7012 125.751 34.5684 126.103 33.5527C126.454 32.5371 126.942 31.6387 127.567 30.8574C128.202 30.0762 128.959 29.4023 129.838 28.8359C130.727 28.2695 131.698 27.8057 132.753 27.4443C133.817 27.0732 134.95 26.7998 136.151 26.624C137.362 26.4482 138.607 26.3604 139.887 26.3604Z" fill="white"/>
<path d="M182.44 36.9512C182.44 38.6797 182.123 40.208 181.488 41.5361C180.854 42.8545 179.945 43.958 178.764 44.8467C177.582 45.7354 176.146 46.4092 174.457 46.8682C172.777 47.3174 170.888 47.542 168.788 47.542C166.688 47.542 164.789 47.3174 163.09 46.8682C161.4 46.4092 159.96 45.7354 158.769 44.8467C157.577 43.958 156.659 42.8545 156.015 41.5361C155.37 40.208 155.048 38.6797 155.048 36.9512C155.048 35.2227 155.37 33.6992 156.015 32.3809C156.659 31.0527 157.577 29.9443 158.769 29.0557C159.96 28.167 161.4 27.498 163.09 27.0488C164.789 26.5898 166.688 26.3604 168.788 26.3604C170.888 26.3604 172.777 26.5898 174.457 27.0488C176.146 27.498 177.582 28.167 178.764 29.0557C179.945 29.9443 180.854 31.0527 181.488 32.3809C182.123 33.6992 182.44 35.2227 182.44 36.9512ZM176.947 36.9512C176.947 36.1992 176.825 35.4521 176.581 34.71C176.347 33.958 175.922 33.2842 175.307 32.6885C174.701 32.0928 173.871 31.6094 172.816 31.2383C171.762 30.8672 170.419 30.6816 168.788 30.6816C167.694 30.6816 166.732 30.7695 165.902 30.9453C165.072 31.1113 164.354 31.3457 163.749 31.6484C163.144 31.9512 162.636 32.3076 162.226 32.7178C161.815 33.1182 161.488 33.5527 161.244 34.0215C161 34.4805 160.824 34.9639 160.717 35.4717C160.619 35.9697 160.57 36.4629 160.57 36.9512C160.57 37.4492 160.619 37.9521 160.717 38.46C160.824 38.9678 161 39.4561 161.244 39.9248C161.488 40.3838 161.815 40.8135 162.226 41.2139C162.636 41.6143 163.144 41.9658 163.749 42.2686C164.354 42.5615 165.072 42.7959 165.902 42.9717C166.732 43.1377 167.694 43.2207 168.788 43.2207C170.419 43.2207 171.762 43.0352 172.816 42.6641C173.871 42.293 174.701 41.8096 175.307 41.2139C175.922 40.6182 176.347 39.9492 176.581 39.207C176.825 38.4551 176.947 37.7031 176.947 36.9512Z" fill="white"/>
<path d="M205.937 32.542C205.556 32.3564 205.053 32.1465 204.428 31.9121C203.803 31.6777 203.095 31.458 202.304 31.2529C201.513 31.0381 200.653 30.8623 199.726 30.7256C198.798 30.5791 197.846 30.5059 196.869 30.5059C196.088 30.5059 195.419 30.5303 194.862 30.5791C194.315 30.6279 193.852 30.6914 193.471 30.7695C193.1 30.8477 192.802 30.9404 192.577 31.0479C192.362 31.1455 192.196 31.248 192.079 31.3555C191.962 31.4629 191.884 31.5703 191.845 31.6777C191.815 31.7852 191.801 31.8828 191.801 31.9707C191.801 32.2637 191.947 32.5225 192.24 32.7471C192.533 32.9619 192.934 33.1572 193.441 33.333C193.949 33.499 194.54 33.6602 195.214 33.8164C195.888 33.9629 196.601 34.1191 197.353 34.2852C198.114 34.4414 198.896 34.6172 199.696 34.8125C200.507 34.998 201.288 35.2178 202.04 35.4717C202.802 35.7256 203.52 36.0234 204.193 36.3652C204.867 36.6973 205.458 37.0879 205.966 37.5371C206.474 37.9863 206.874 38.5039 207.167 39.0898C207.46 39.6758 207.606 40.3447 207.606 41.0967C207.606 42.0635 207.436 42.8936 207.094 43.5869C206.752 44.2803 206.293 44.8662 205.717 45.3447C205.15 45.8232 204.491 46.209 203.739 46.502C202.987 46.7852 202.196 47.0049 201.366 47.1611C200.546 47.3174 199.711 47.4199 198.861 47.4688C198.021 47.5176 197.221 47.542 196.459 47.542C194.467 47.542 192.621 47.376 190.922 47.0439C189.232 46.7217 187.738 46.3164 186.439 45.8281V41.0234C187.777 41.7656 189.301 42.3467 191.01 42.7666C192.729 43.1865 194.564 43.3965 196.518 43.3965C197.67 43.3965 198.607 43.3379 199.33 43.2207C200.062 43.0938 200.634 42.9375 201.044 42.752C201.454 42.5566 201.732 42.3467 201.879 42.1221C202.025 41.8975 202.099 41.6826 202.099 41.4775C202.099 41.1553 201.952 40.877 201.659 40.6426C201.366 40.3984 200.966 40.1885 200.458 40.0127C199.95 39.8271 199.359 39.6611 198.686 39.5146C198.012 39.3584 197.294 39.207 196.532 39.0605C195.78 38.9043 195.004 38.7383 194.203 38.5625C193.402 38.3867 192.621 38.1816 191.859 37.9473C191.107 37.7031 190.395 37.4248 189.721 37.1123C189.047 36.79 188.456 36.4141 187.948 35.9844C187.44 35.5449 187.04 35.042 186.747 34.4756C186.454 33.8994 186.308 33.2354 186.308 32.4834C186.308 31.5947 186.464 30.8281 186.776 30.1836C187.089 29.5391 187.509 28.9922 188.036 28.543C188.573 28.084 189.188 27.7129 189.882 27.4297C190.585 27.1465 191.322 26.9268 192.094 26.7705C192.865 26.6143 193.646 26.5068 194.438 26.4482C195.229 26.3896 195.98 26.3604 196.693 26.3604C197.475 26.3604 198.275 26.3994 199.096 26.4775C199.926 26.5557 200.741 26.668 201.542 26.8145C202.343 26.9512 203.114 27.1123 203.856 27.2979C204.608 27.4834 205.302 27.6787 205.937 27.8838V32.542Z" fill="white"/>
<path d="M7.69531 11.6016V20H4.79688V11.6016H0.242188V9.26562H12.2578V11.6016H7.69531Z" stroke="white" stroke-width="2" mask="url(#path-2-inside-1)"/>
<path d="M24.4531 20V15.5234H17.0781V20H14.1797V9.26562H17.0781V13.1719H24.4531V9.26562H27.3516V20H24.4531Z" stroke="white" stroke-width="2" mask="url(#path-2-inside-1)"/>
<path d="M30.7109 20V9.26562H41.5781V11.5547H33.6875V13.3281H41.1719V15.6172H33.6875V17.7109H41.6875V20H30.7109Z" stroke="white" stroke-width="2" mask="url(#path-2-inside-1)"/>
<path d="M68.3242 6.50586C67.9688 6.33268 67.4993 6.13672 66.916 5.91797C66.3327 5.69922 65.6719 5.49414 64.9336 5.30273C64.1953 5.10221 63.3932 4.93815 62.5273 4.81055C61.6615 4.67383 60.7728 4.60547 59.8613 4.60547C59.1322 4.60547 58.5078 4.62826 57.9883 4.67383C57.4779 4.7194 57.0449 4.77865 56.6895 4.85156C56.3431 4.92448 56.0651 5.01107 55.8555 5.11133C55.6549 5.20247 55.5 5.29818 55.3906 5.39844C55.2812 5.4987 55.2083 5.59896 55.1719 5.69922C55.1445 5.79948 55.1309 5.89062 55.1309 5.97266C55.1309 6.24609 55.2676 6.48763 55.541 6.69727C55.8145 6.89779 56.1882 7.08008 56.6621 7.24414C57.1361 7.39909 57.6875 7.54948 58.3164 7.69531C58.9453 7.83203 59.6107 7.97786 60.3125 8.13281C61.0234 8.27865 61.7526 8.44271 62.5 8.625C63.2565 8.79818 63.9857 9.00326 64.6875 9.24023C65.3984 9.47721 66.0684 9.75521 66.6973 10.0742C67.3262 10.3841 67.8776 10.7487 68.3516 11.168C68.8255 11.5872 69.1992 12.0703 69.4727 12.6172C69.7461 13.1641 69.8828 13.7884 69.8828 14.4902C69.8828 15.3926 69.7233 16.1673 69.4043 16.8145C69.0853 17.4616 68.6569 18.0085 68.1191 18.4551C67.5905 18.9017 66.9753 19.2617 66.2734 19.5352C65.5716 19.7995 64.8333 20.0046 64.0586 20.1504C63.293 20.2962 62.5137 20.3919 61.7207 20.4375C60.9368 20.4831 60.1895 20.5059 59.4785 20.5059C57.6191 20.5059 55.8965 20.3509 54.3105 20.041C52.7337 19.7402 51.3392 19.362 50.127 18.9062V14.4219C51.3757 15.1146 52.7975 15.6569 54.3926 16.0488C55.9967 16.4408 57.7103 16.6367 59.5332 16.6367C60.6087 16.6367 61.4837 16.582 62.1582 16.4727C62.8418 16.3542 63.375 16.2083 63.7578 16.0352C64.1406 15.8529 64.4004 15.6569 64.5371 15.4473C64.6738 15.2376 64.7422 15.0371 64.7422 14.8457C64.7422 14.5449 64.6055 14.2852 64.332 14.0664C64.0586 13.8385 63.6849 13.6426 63.2109 13.4785C62.737 13.3053 62.1855 13.1504 61.5566 13.0137C60.9277 12.8678 60.2578 12.7266 59.5469 12.5898C58.8451 12.444 58.1204 12.2891 57.373 12.125C56.6257 11.9609 55.8965 11.7695 55.1855 11.5508C54.4837 11.3229 53.8184 11.0632 53.1895 10.7715C52.5605 10.4707 52.0091 10.1198 51.5352 9.71875C51.0612 9.30859 50.6875 8.83919 50.4141 8.31055C50.1406 7.77279 50.0039 7.15299 50.0039 6.45117C50.0039 5.62174 50.1497 4.90625 50.4414 4.30469C50.7331 3.70312 51.125 3.19271 51.6172 2.77344C52.1185 2.34505 52.6927 1.9987 53.3398 1.73438C53.9961 1.47005 54.6842 1.26497 55.4043 1.11914C56.1243 0.973307 56.8535 0.873047 57.5918 0.818359C58.3301 0.763672 59.0319 0.736328 59.6973 0.736328C60.4264 0.736328 61.1738 0.772786 61.9395 0.845703C62.7142 0.91862 63.4753 1.02344 64.2227 1.16016C64.9701 1.28776 65.6901 1.43815 66.3828 1.61133C67.0846 1.78451 67.7318 1.9668 68.3242 2.1582V6.50586Z" stroke="white" stroke-width="2" mask="url(#path-2-inside-1)"/>
<path d="M99.0039 10.6211C99.0039 12.2344 98.7077 13.6608 98.1152 14.9004C97.5228 16.1309 96.6751 17.1608 95.5723 17.9902C94.4694 18.8197 93.1296 19.4486 91.5527 19.877C89.985 20.2962 88.2214 20.5059 86.2617 20.5059C84.3021 20.5059 82.5293 20.2962 80.9434 19.877C79.3665 19.4486 78.0221 18.8197 76.9102 17.9902C75.7982 17.1608 74.9414 16.1309 74.3398 14.9004C73.7383 13.6608 73.4375 12.2344 73.4375 10.6211C73.4375 9.00781 73.7383 7.58594 74.3398 6.35547C74.9414 5.11589 75.7982 4.08138 76.9102 3.25195C78.0221 2.42253 79.3665 1.79818 80.9434 1.37891C82.5293 0.950521 84.3021 0.736328 86.2617 0.736328C88.2214 0.736328 89.985 0.950521 91.5527 1.37891C93.1296 1.79818 94.4694 2.42253 95.5723 3.25195C96.6751 4.08138 97.5228 5.11589 98.1152 6.35547C98.7077 7.58594 99.0039 9.00781 99.0039 10.6211ZM93.877 10.6211C93.877 9.91927 93.763 9.22201 93.5352 8.5293C93.3164 7.82747 92.9199 7.19857 92.3457 6.64258C91.7806 6.08659 91.0059 5.63542 90.0215 5.28906C89.0371 4.94271 87.7839 4.76953 86.2617 4.76953C85.2409 4.76953 84.3431 4.85156 83.5684 5.01562C82.7936 5.17057 82.1237 5.38932 81.5586 5.67188C80.9935 5.95443 80.5195 6.28711 80.1367 6.66992C79.7539 7.04362 79.4486 7.44922 79.2207 7.88672C78.9928 8.3151 78.8288 8.76628 78.7285 9.24023C78.6374 9.70508 78.5918 10.1654 78.5918 10.6211C78.5918 11.0859 78.6374 11.5553 78.7285 12.0293C78.8288 12.5033 78.9928 12.959 79.2207 13.3965C79.4486 13.8249 79.7539 14.2259 80.1367 14.5996C80.5195 14.9733 80.9935 15.3014 81.5586 15.584C82.1237 15.8574 82.7936 16.0762 83.5684 16.2402C84.3431 16.3952 85.2409 16.4727 86.2617 16.4727C87.7839 16.4727 89.0371 16.2995 90.0215 15.9531C91.0059 15.6068 91.7806 15.1556 92.3457 14.5996C92.9199 14.0436 93.3164 13.4193 93.5352 12.7266C93.763 12.0247 93.877 11.3229 93.877 10.6211Z" stroke="white" stroke-width="2" mask="url(#path-2-inside-1)"/>
<path d="M125.801 13.6699C125.801 14.6087 125.568 15.4928 125.104 16.3223C124.639 17.1517 123.941 17.8763 123.012 18.4961C122.082 19.1159 120.92 19.6081 119.525 19.9727C118.14 20.3281 116.518 20.5059 114.658 20.5059C112.799 20.5059 111.167 20.3281 109.764 19.9727C108.369 19.6081 107.207 19.1159 106.277 18.4961C105.348 17.8763 104.65 17.1517 104.186 16.3223C103.721 15.4928 103.488 14.6087 103.488 13.6699V1.21484H108.547V11.8516C108.547 12.4805 108.624 13.0775 108.779 13.6426C108.943 14.1986 109.244 14.6862 109.682 15.1055C110.128 15.5247 110.748 15.8574 111.541 16.1035C112.343 16.3496 113.382 16.4727 114.658 16.4727C115.925 16.4727 116.955 16.3496 117.748 16.1035C118.541 15.8574 119.156 15.5247 119.594 15.1055C120.04 14.6862 120.341 14.1986 120.496 13.6426C120.651 13.0775 120.729 12.4805 120.729 11.8516V1.21484H125.801V13.6699Z" stroke="white" stroke-width="2" mask="url(#path-2-inside-1)"/>
<path d="M149.289 20L136.615 7.09375V20H131.543V1.21484H137.053L149.74 14.1758V1.21484H154.785V20H149.289Z" stroke="white" stroke-width="2" mask="url(#path-2-inside-1)"/>
<path d="M183.674 10.5938C183.674 11.7969 183.542 12.8678 183.277 13.8066C183.013 14.7363 182.639 15.5475 182.156 16.2402C181.682 16.9329 181.108 17.5208 180.434 18.0039C179.768 18.487 179.025 18.8743 178.205 19.166C177.385 19.4577 176.501 19.6719 175.553 19.8086C174.605 19.9362 173.616 20 172.586 20H160.664V1.21484H172.559C173.589 1.21484 174.577 1.2832 175.525 1.41992C176.473 1.54753 177.357 1.75716 178.178 2.04883C179.007 2.34049 179.759 2.72786 180.434 3.21094C181.108 3.6849 181.682 4.27279 182.156 4.97461C182.639 5.66732 183.013 6.47852 183.277 7.4082C183.542 8.33789 183.674 9.39974 183.674 10.5938ZM178.561 10.5938C178.561 9.69141 178.442 8.90755 178.205 8.24219C177.977 7.57682 177.604 7.02995 177.084 6.60156C176.574 6.16406 175.904 5.84049 175.074 5.63086C174.245 5.41211 173.233 5.30273 172.039 5.30273H165.736V15.9121H172.039C173.233 15.9121 174.245 15.8073 175.074 15.5977C175.904 15.3789 176.574 15.0508 177.084 14.6133C177.604 14.1667 177.977 13.6107 178.205 12.9453C178.442 12.2799 178.561 11.4961 178.561 10.5938Z" stroke="white" stroke-width="2" mask="url(#path-2-inside-1)"/>
<path d="M205.617 6.50586C205.262 6.33268 204.792 6.13672 204.209 5.91797C203.626 5.69922 202.965 5.49414 202.227 5.30273C201.488 5.10221 200.686 4.93815 199.82 4.81055C198.954 4.67383 198.066 4.60547 197.154 4.60547C196.425 4.60547 195.801 4.62826 195.281 4.67383C194.771 4.7194 194.338 4.77865 193.982 4.85156C193.636 4.92448 193.358 5.01107 193.148 5.11133C192.948 5.20247 192.793 5.29818 192.684 5.39844C192.574 5.4987 192.501 5.59896 192.465 5.69922C192.438 5.79948 192.424 5.89062 192.424 5.97266C192.424 6.24609 192.561 6.48763 192.834 6.69727C193.107 6.89779 193.481 7.08008 193.955 7.24414C194.429 7.39909 194.98 7.54948 195.609 7.69531C196.238 7.83203 196.904 7.97786 197.605 8.13281C198.316 8.27865 199.046 8.44271 199.793 8.625C200.549 8.79818 201.279 9.00326 201.98 9.24023C202.691 9.47721 203.361 9.75521 203.99 10.0742C204.619 10.3841 205.171 10.7487 205.645 11.168C206.118 11.5872 206.492 12.0703 206.766 12.6172C207.039 13.1641 207.176 13.7884 207.176 14.4902C207.176 15.3926 207.016 16.1673 206.697 16.8145C206.378 17.4616 205.95 18.0085 205.412 18.4551C204.883 18.9017 204.268 19.2617 203.566 19.5352C202.865 19.7995 202.126 20.0046 201.352 20.1504C200.586 20.2962 199.807 20.3919 199.014 20.4375C198.23 20.4831 197.482 20.5059 196.771 20.5059C194.912 20.5059 193.189 20.3509 191.604 20.041C190.027 19.7402 188.632 19.362 187.42 18.9062V14.4219C188.669 15.1146 190.09 15.6569 191.686 16.0488C193.29 16.4408 195.003 16.6367 196.826 16.6367C197.902 16.6367 198.777 16.582 199.451 16.4727C200.135 16.3542 200.668 16.2083 201.051 16.0352C201.434 15.8529 201.693 15.6569 201.83 15.4473C201.967 15.2376 202.035 15.0371 202.035 14.8457C202.035 14.5449 201.898 14.2852 201.625 14.0664C201.352 13.8385 200.978 13.6426 200.504 13.4785C200.03 13.3053 199.479 13.1504 198.85 13.0137C198.221 12.8678 197.551 12.7266 196.84 12.5898C196.138 12.444 195.413 12.2891 194.666 12.125C193.919 11.9609 193.189 11.7695 192.479 11.5508C191.777 11.3229 191.111 11.0632 190.482 10.7715C189.854 10.4707 189.302 10.1198 188.828 9.71875C188.354 9.30859 187.98 8.83919 187.707 8.31055C187.434 7.77279 187.297 7.15299 187.297 6.45117C187.297 5.62174 187.443 4.90625 187.734 4.30469C188.026 3.70312 188.418 3.19271 188.91 2.77344C189.411 2.34505 189.986 1.9987 190.633 1.73438C191.289 1.47005 191.977 1.26497 192.697 1.11914C193.417 0.973307 194.146 0.873047 194.885 0.818359C195.623 0.763672 196.325 0.736328 196.99 0.736328C197.719 0.736328 198.467 0.772786 199.232 0.845703C200.007 0.91862 200.768 1.02344 201.516 1.16016C202.263 1.28776 202.983 1.43815 203.676 1.61133C204.378 1.78451 205.025 1.9668 205.617 2.1582V6.50586Z" stroke="white" stroke-width="2" mask="url(#path-2-inside-1)"/>
<path d="M29.1943 36.9512C29.1943 38.6797 28.877 40.208 28.2422 41.5361C27.6074 42.8545 26.6992 43.958 25.5176 44.8467C24.3359 45.7354 22.9004 46.4092 21.2109 46.8682C19.5312 47.3174 17.6416 47.542 15.542 47.542C13.4424 47.542 11.543 47.3174 9.84375 46.8682C8.1543 46.4092 6.71387 45.7354 5.52246 44.8467C4.33105 43.958 3.41309 42.8545 2.76855 41.5361C2.12402 40.208 1.80176 38.6797 1.80176 36.9512C1.80176 35.2227 2.12402 33.6992 2.76855 32.3809C3.41309 31.0527 4.33105 29.9443 5.52246 29.0557C6.71387 28.167 8.1543 27.498 9.84375 27.0488C11.543 26.5898 13.4424 26.3604 15.542 26.3604C17.6416 26.3604 19.5312 26.5898 21.2109 27.0488C22.9004 27.498 24.3359 28.167 25.5176 29.0557C26.6992 29.9443 27.6074 31.0527 28.2422 32.3809C28.877 33.6992 29.1943 35.2227 29.1943 36.9512ZM23.7012 36.9512C23.7012 36.1992 23.5791 35.4521 23.335 34.71C23.1006 33.958 22.6758 33.2842 22.0605 32.6885C21.4551 32.0928 20.625 31.6094 19.5703 31.2383C18.5156 30.8672 17.1729 30.6816 15.542 30.6816C14.4482 30.6816 13.4863 30.7695 12.6562 30.9453C11.8262 31.1113 11.1084 31.3457 10.5029 31.6484C9.89746 31.9512 9.38965 32.3076 8.97949 32.7178C8.56934 33.1182 8.24219 33.5527 7.99805 34.0215C7.75391 34.4805 7.57812 34.9639 7.4707 35.4717C7.37305 35.9697 7.32422 36.4629 7.32422 36.9512C7.32422 37.4492 7.37305 37.9521 7.4707 38.46C7.57812 38.9678 7.75391 39.4561 7.99805 39.9248C8.24219 40.3838 8.56934 40.8135 8.97949 41.2139C9.38965 41.6143 9.89746 41.9658 10.5029 42.2686C11.1084 42.5615 11.8262 42.7959 12.6562 42.9717C13.4863 43.1377 14.4482 43.2207 15.542 43.2207C17.1729 43.2207 18.5156 43.0352 19.5703 42.6641C20.625 42.293 21.4551 41.8096 22.0605 41.2139C22.6758 40.6182 23.1006 39.9492 23.335 39.207C23.5791 38.4551 23.7012 37.7031 23.7012 36.9512Z" stroke="white" stroke-width="2" mask="url(#path-2-inside-1)"/>
<path d="M39.5801 31.165V34.666H52.6611V38.958H39.5801V47H34.1455V26.873H53.3789V31.165H39.5801Z" stroke="white" stroke-width="2" mask="url(#path-2-inside-1)"/>
<path d="M75.3018 47V26.873H80.7363V42.5908H95.4287V47H75.3018Z" stroke="white" stroke-width="2" mask="url(#path-2-inside-1)"/>
<path d="M115.966 43.1914H104.745L102.855 47H96.791L107.323 26.873H113.388L123.92 47H117.855L115.966 43.1914ZM106.693 39.2656H114.047L110.385 31.8535L106.693 39.2656Z" stroke="white" stroke-width="2" mask="url(#path-2-inside-1)"/>
<path d="M139.887 26.3604C141.859 26.3604 143.69 26.5312 145.38 26.873C147.079 27.2051 148.637 27.6348 150.053 28.1621V33.084C149.496 32.7715 148.866 32.4688 148.163 32.1758C147.47 31.8828 146.713 31.624 145.893 31.3994C145.072 31.1748 144.193 30.9941 143.256 30.8574C142.318 30.7207 141.332 30.6523 140.297 30.6523C139.008 30.6523 137.885 30.7451 136.928 30.9307C135.971 31.1162 135.15 31.3652 134.467 31.6777C133.783 31.9902 133.222 32.3564 132.782 32.7764C132.343 33.1865 131.996 33.626 131.742 34.0947C131.488 34.5635 131.312 35.042 131.215 35.5303C131.117 36.0186 131.068 36.4922 131.068 36.9512C131.068 37.3516 131.107 37.7861 131.186 38.2549C131.273 38.7236 131.43 39.1924 131.654 39.6611C131.889 40.1299 132.211 40.5791 132.621 41.0088C133.031 41.4385 133.563 41.8193 134.218 42.1514C134.882 42.4834 135.678 42.752 136.605 42.957C137.533 43.1523 138.637 43.25 139.916 43.25C140.561 43.25 141.122 43.2305 141.601 43.1914C142.079 43.1523 142.514 43.0986 142.904 43.0303C143.305 42.9619 143.676 42.8789 144.018 42.7812C144.369 42.6836 144.73 42.5811 145.102 42.4736V40.042H139.008V35.6328H150.536V45.916C149.813 46.1602 149.003 46.3848 148.104 46.5898C147.216 46.7852 146.293 46.9512 145.336 47.0879C144.389 47.2344 143.437 47.3467 142.479 47.4248C141.522 47.5029 140.619 47.542 139.77 47.542C138.451 47.542 137.187 47.4541 135.976 47.2783C134.765 47.1025 133.632 46.834 132.577 46.4727C131.532 46.1016 130.575 45.6328 129.706 45.0664C128.847 44.5 128.109 43.8262 127.494 43.0449C126.889 42.2637 126.415 41.3701 126.073 40.3643C125.741 39.3486 125.575 38.2109 125.575 36.9512C125.575 35.7012 125.751 34.5684 126.103 33.5527C126.454 32.5371 126.942 31.6387 127.567 30.8574C128.202 30.0762 128.959 29.4023 129.838 28.8359C130.727 28.2695 131.698 27.8057 132.753 27.4443C133.817 27.0732 134.95 26.7998 136.151 26.624C137.362 26.4482 138.607 26.3604 139.887 26.3604Z" stroke="white" stroke-width="2" mask="url(#path-2-inside-1)"/>
<path d="M182.44 36.9512C182.44 38.6797 182.123 40.208 181.488 41.5361C180.854 42.8545 179.945 43.958 178.764 44.8467C177.582 45.7354 176.146 46.4092 174.457 46.8682C172.777 47.3174 170.888 47.542 168.788 47.542C166.688 47.542 164.789 47.3174 163.09 46.8682C161.4 46.4092 159.96 45.7354 158.769 44.8467C157.577 43.958 156.659 42.8545 156.015 41.5361C155.37 40.208 155.048 38.6797 155.048 36.9512C155.048 35.2227 155.37 33.6992 156.015 32.3809C156.659 31.0527 157.577 29.9443 158.769 29.0557C159.96 28.167 161.4 27.498 163.09 27.0488C164.789 26.5898 166.688 26.3604 168.788 26.3604C170.888 26.3604 172.777 26.5898 174.457 27.0488C176.146 27.498 177.582 28.167 178.764 29.0557C179.945 29.9443 180.854 31.0527 181.488 32.3809C182.123 33.6992 182.44 35.2227 182.44 36.9512ZM176.947 36.9512C176.947 36.1992 176.825 35.4521 176.581 34.71C176.347 33.958 175.922 33.2842 175.307 32.6885C174.701 32.0928 173.871 31.6094 172.816 31.2383C171.762 30.8672 170.419 30.6816 168.788 30.6816C167.694 30.6816 166.732 30.7695 165.902 30.9453C165.072 31.1113 164.354 31.3457 163.749 31.6484C163.144 31.9512 162.636 32.3076 162.226 32.7178C161.815 33.1182 161.488 33.5527 161.244 34.0215C161 34.4805 160.824 34.9639 160.717 35.4717C160.619 35.9697 160.57 36.4629 160.57 36.9512C160.57 37.4492 160.619 37.9521 160.717 38.46C160.824 38.9678 161 39.4561 161.244 39.9248C161.488 40.3838 161.815 40.8135 162.226 41.2139C162.636 41.6143 163.144 41.9658 163.749 42.2686C164.354 42.5615 165.072 42.7959 165.902 42.9717C166.732 43.1377 167.694 43.2207 168.788 43.2207C170.419 43.2207 171.762 43.0352 172.816 42.6641C173.871 42.293 174.701 41.8096 175.307 41.2139C175.922 40.6182 176.347 39.9492 176.581 39.207C176.825 38.4551 176.947 37.7031 176.947 36.9512Z" stroke="white" stroke-width="2" mask="url(#path-2-inside-1)"/>
<path d="M205.937 32.542C205.556 32.3564 205.053 32.1465 204.428 31.9121C203.803 31.6777 203.095 31.458 202.304 31.2529C201.513 31.0381 200.653 30.8623 199.726 30.7256C198.798 30.5791 197.846 30.5059 196.869 30.5059C196.088 30.5059 195.419 30.5303 194.862 30.5791C194.315 30.6279 193.852 30.6914 193.471 30.7695C193.1 30.8477 192.802 30.9404 192.577 31.0479C192.362 31.1455 192.196 31.248 192.079 31.3555C191.962 31.4629 191.884 31.5703 191.845 31.6777C191.815 31.7852 191.801 31.8828 191.801 31.9707C191.801 32.2637 191.947 32.5225 192.24 32.7471C192.533 32.9619 192.934 33.1572 193.441 33.333C193.949 33.499 194.54 33.6602 195.214 33.8164C195.888 33.9629 196.601 34.1191 197.353 34.2852C198.114 34.4414 198.896 34.6172 199.696 34.8125C200.507 34.998 201.288 35.2178 202.04 35.4717C202.802 35.7256 203.52 36.0234 204.193 36.3652C204.867 36.6973 205.458 37.0879 205.966 37.5371C206.474 37.9863 206.874 38.5039 207.167 39.0898C207.46 39.6758 207.606 40.3447 207.606 41.0967C207.606 42.0635 207.436 42.8936 207.094 43.5869C206.752 44.2803 206.293 44.8662 205.717 45.3447C205.15 45.8232 204.491 46.209 203.739 46.502C202.987 46.7852 202.196 47.0049 201.366 47.1611C200.546 47.3174 199.711 47.4199 198.861 47.4688C198.021 47.5176 197.221 47.542 196.459 47.542C194.467 47.542 192.621 47.376 190.922 47.0439C189.232 46.7217 187.738 46.3164 186.439 45.8281V41.0234C187.777 41.7656 189.301 42.3467 191.01 42.7666C192.729 43.1865 194.564 43.3965 196.518 43.3965C197.67 43.3965 198.607 43.3379 199.33 43.2207C200.062 43.0938 200.634 42.9375 201.044 42.752C201.454 42.5566 201.732 42.3467 201.879 42.1221C202.025 41.8975 202.099 41.6826 202.099 41.4775C202.099 41.1553 201.952 40.877 201.659 40.6426C201.366 40.3984 200.966 40.1885 200.458 40.0127C199.95 39.8271 199.359 39.6611 198.686 39.5146C198.012 39.3584 197.294 39.207 196.532 39.0605C195.78 38.9043 195.004 38.7383 194.203 38.5625C193.402 38.3867 192.621 38.1816 191.859 37.9473C191.107 37.7031 190.395 37.4248 189.721 37.1123C189.047 36.79 188.456 36.4141 187.948 35.9844C187.44 35.5449 187.04 35.042 186.747 34.4756C186.454 33.8994 186.308 33.2354 186.308 32.4834C186.308 31.5947 186.464 30.8281 186.776 30.1836C187.089 29.5391 187.509 28.9922 188.036 28.543C188.573 28.084 189.188 27.7129 189.882 27.4297C190.585 27.1465 191.322 26.9268 192.094 26.7705C192.865 26.6143 193.646 26.5068 194.438 26.4482C195.229 26.3896 195.98 26.3604 196.693 26.3604C197.475 26.3604 198.275 26.3994 199.096 26.4775C199.926 26.5557 200.741 26.668 201.542 26.8145C202.343 26.9512 203.114 27.1123 203.856 27.2979C204.608 27.4834 205.302 27.6787 205.937 27.8838V32.542Z" stroke="white" stroke-width="2" mask="url(#path-2-inside-1)"/>
</svg>
