<svg xmlns="http://www.w3.org/2000/svg" viewBox="0 0 328 45.93"><g id="Layer_2" data-name="Layer 2"><g id="Layer_1-2" data-name="Layer 1"><path d="M10.5,22.12c-6.25,2.32-9.29,4.62-9.29,7h0c0,3.65,7.15,7.23,21.23,10.65,10.48,2.55,21.1,4,21.2,4.07s0,0,0-.09v0h0V14.53h0s0-.09,0-.09C28.69,16.92,17.54,19.51,10.5,22.12ZM43.61,41.79c0,1-.54,1.83-1.16,1.73-3.07-.46-11.58-1.84-20-3.88C11.17,36.9,5.63,34.35,3.12,32.23c-.89-.75-.55-3,.45-3h40ZM4.06,29.08c-1.15,0-1.5-2.58-.45-3.36a28.35,28.35,0,0,1,6.9-3.42c6.84-2.53,17.55-5,31.87-7.46.66-.11,1.23.73,1.23,1.82V29.08Z"/><path d="M0,29.17c0-3.68,3-6.28,10.24-9,7.08-2.63,18.28-5.22,33.28-7.71l.53-.09.41.59a2.78,2.78,0,0,1,.42,1.49V44l0,.18a2.62,2.62,0,0,1-.41,1.18l-.39.57-.54-.08c-.08,0-10.69-1.51-21.25-4.07C2.71,37,0,32.91,0,29.17Zm41.49,2.06H4.69c2.42,1.66,7.37,3.94,17.5,6.46,8,2,16.05,3.33,19.3,3.84Zm0-14.41c-13.87,2.4-24.25,4.89-30.86,7.4A30.42,30.42,0,0,0,4.7,27.1H41.49Z"/><path d="M68.92,44.64V40.57h5.84v-22H68.92V14.45H80.36v3.76l-2.07.61a34,34,0,0,1,6.42-3.72,15.9,15.9,0,0,1,6.41-1.42,9.35,9.35,0,0,1,7.3,2.88A10.52,10.52,0,0,1,101,23.9V40.57h5.54v4.07H90.35V40.57h5.07V24.82a7.28,7.28,0,0,0-1.53-4.92,5.32,5.32,0,0,0-4.23-1.77,14.94,14.94,0,0,0-5.57,1.23,31.49,31.49,0,0,0-6,3.23l2.22-2.23V40.57h5.46v4.07Zm42.41,0V40.57h5.07V24.82a7.23,7.23,0,0,0-1.54-4.92,5.29,5.29,0,0,0-4.22-1.77,14.14,14.14,0,0,0-5.34,1.12,25,25,0,0,0-5.19,2.88L99,19a40.7,40.7,0,0,1,6.38-3.8,15.51,15.51,0,0,1,6.76-1.5,10.25,10.25,0,0,1,7,2.57C121,18,122,20.46,122,23.74V40.57h5.53v4.07Z"/><path d="M129.38,44.64V40.57h5.84v-22h-5.76V14.45h11.37V40.57h5.46v4.07Zm7.92-36.8a4.17,4.17,0,0,1-2.92-1.12,3.61,3.61,0,0,1-1.23-2.8,3.64,3.64,0,0,1,1.23-2.81,4.45,4.45,0,0,1,5.88,0,3.71,3.71,0,0,1,1.19,2.81,3.67,3.67,0,0,1-1.19,2.8A4.15,4.15,0,0,1,137.3,7.84Z"/><path d="M149.9,44.64V40.57h5.84v-22H149.9V14.45h11.45v4.14l-2.15.23a41.55,41.55,0,0,1,6.45-3.68,15.76,15.76,0,0,1,6.61-1.46,10.21,10.21,0,0,1,7,2.57c1.92,1.72,2.88,4.21,2.88,7.49V40.57h5.61v4.07H171.57V40.57h5V24.82A7.23,7.23,0,0,0,175,19.9a5.29,5.29,0,0,0-4.22-1.77,14,14,0,0,0-5.61,1.23,39.07,39.07,0,0,0-6.07,3.38l2.23-2.46V40.57h5.45v4.07Z"/><path d="M189.62,44.64V40.57h5.84v-22H189.7V14.45h11.37V40.57h5.46v4.07Zm7.92-36.8a4.17,4.17,0,0,1-2.92-1.12,3.61,3.61,0,0,1-1.23-2.8,3.64,3.64,0,0,1,1.23-2.81A4.21,4.21,0,0,1,197.54,0a4.16,4.16,0,0,1,3,1.11,3.68,3.68,0,0,1,1.2,2.81,3.65,3.65,0,0,1-1.2,2.8A4.12,4.12,0,0,1,197.54,7.84Z"/><path d="M210.52,44.64V40.57h5.61v-36h-5.45v-4h11.14v40h4.91v4.07Z"/><path d="M230.11,44.64V40.57H236v-22h-5.76V14.45h11.37V40.57H247v4.07ZM238,7.84a4.17,4.17,0,0,1-2.92-1.12,3.61,3.61,0,0,1-1.23-2.8,3.64,3.64,0,0,1,1.23-2.81,4.45,4.45,0,0,1,5.88,0,3.71,3.71,0,0,1,1.19,2.81A3.67,3.67,0,0,1,241,6.72,4.15,4.15,0,0,1,238,7.84Z"/><path d="M266.15,44.64,254.62,18.52h-5.14V14.45h16.13v4.07h-4.92l8.46,20.28,8.37-20.28h-4.84V14.45h15.21v4.07h-4.84L271.3,44.64Z"/><path d="M290.12,44.64V40.57H296v-22h-5.84V14.45h11.45v4.14l-2.15.23a41.55,41.55,0,0,1,6.45-3.68,15.76,15.76,0,0,1,6.61-1.46,10.21,10.21,0,0,1,7,2.57c1.92,1.72,2.88,4.21,2.88,7.49V40.57H328v4.07H311.79V40.57h5V24.82a7.23,7.23,0,0,0-1.54-4.92A5.29,5.29,0,0,0,311,18.13a14.09,14.09,0,0,0-5.61,1.23,39.07,39.07,0,0,0-6.07,3.38l2.23-2.46V40.57H307v4.07Z"/></g></g></svg>