<svg xmlns="http://www.w3.org/2000/svg" viewBox="0 0 872 586"><g id="Layer_2" data-name="Layer 2"><g id="Layer_1-2" data-name="Layer 1"><rect width="872" height="586" rx="10.00151" style="fill:#f7941d"/><circle cx="436.20139" cy="293.02552" r="26.35762" style="fill:#000b17"/><rect x="496.81844" y="144.69156" width="3.03372" height="172.92182" transform="translate(309.4085 -284.67328) rotate(45)" style="fill:#0c0c0c"/><rect x="507.57266" y="157.85983" width="3.03372" height="172.92182" transform="translate(428.21073 -314.53826) rotate(56.12811)" style="fill:#0c0c0c"/><rect x="515.58315" y="172.85611" width="3.03372" height="172.92182" transform="translate(556.33686 -317.82958) rotate(67.25622)" style="fill:#0c0c0c"/><rect x="520.54869" y="189.11649" width="3.03372" height="172.92182" transform="translate(686.88351 -291.28271) rotate(78.38433)" style="fill:#0c0c0c"/><rect x="522.28257" y="206.02951" width="3.03372" height="172.92182" transform="translate(811.82207 -233.77894) rotate(89.51245)" style="fill:#0c0c0c"/><rect x="520.71957" y="222.95917" width="3.03372" height="172.92182" transform="translate(922.76543 -146.70293) rotate(100.64056)" style="fill:#0c0c0c"/><rect x="515.91848" y="239.26887" width="3.03372" height="172.92182" transform="translate(1011.83302 -34.00646) rotate(111.76867)" style="fill:#0c0c0c"/><rect x="508.05984" y="254.34528" width="3.03372" height="172.92182" transform="translate(1072.49974 98.04104) rotate(122.89678)" style="fill:#0c0c0c"/><rect x="497.43915" y="267.62148" width="3.03372" height="172.92182" transform="translate(1100.31454 241.391) rotate(134.02489)" style="fill:#0c0c0c"/><rect x="484.4558" y="278.59823" width="3.03372" height="172.92182" transform="translate(1093.39111 386.97773) rotate(145.153)" style="fill:#0c0c0c"/><rect x="469.59801" y="286.86277" width="3.03372" height="172.92182" transform="translate(1052.60398 525.60696) rotate(156.28111)" style="fill:#0c0c0c"/><rect x="453.42449" y="292.10432" width="3.03372" height="172.92182" transform="translate(981.46418 648.85577) rotate(167.40922)" style="fill:#0c0c0c"/><rect x="436.54343" y="294.12577" width="3.03372" height="172.92182" transform="translate(885.69252 749.86763) rotate(178.53734)" style="fill:#0c0c0c"/><rect x="419.58962" y="292.85111" width="3.03372" height="172.92182" transform="translate(772.55075 823.9413) rotate(-170.33455)" style="fill:#0c0c0c"/><rect x="403.20058" y="288.32828" width="3.03372" height="172.92182" transform="translate(650.02299 868.84214) rotate(-159.20644)" style="fill:#0c0c0c"/><rect x="387.99262" y="280.72734" width="3.03372" height="172.92182" transform="translate(525.95989 884.80405) rotate(-148.07833)" style="fill:#0c0c0c"/><rect x="374.53759" y="270.33412" width="3.03372" height="172.92182" transform="translate(407.30008 874.23426) rotate(-136.95022)" style="fill:#0c0c0c"/><rect x="363.34148" y="257.53946" width="3.03372" height="172.92182" transform="translate(299.4706 841.17468) rotate(-125.82211)" style="fill:#0c0c0c"/><rect x="354.82528" y="242.82447" width="3.03372" height="172.92182" transform="translate(206.039 790.60689) rotate(-114.694)" style="fill:#0c0c0c"/><rect x="349.30926" y="226.74249" width="3.03372" height="172.92182" transform="translate(128.65178 727.70779) rotate(-103.56588)" style="fill:#0c0c0c"/><rect x="347.00081" y="209.89827" width="3.03372" height="172.92182" transform="translate(67.25066 657.16689) rotate(-92.43777)" style="fill:#0c0c0c"/><rect x="347.98677" y="192.92522" width="3.03372" height="172.92182" transform="translate(20.51708 582.66364) rotate(-81.30966)" style="fill:#0c0c0c"/><rect x="352.23004" y="176.46159" width="3.03372" height="172.92182" transform="translate(-13.53779 506.57608) rotate(-70.18155)" style="fill:#0c0c0c"/><rect x="359.57107" y="161.12647" width="3.03372" height="172.92182" transform="translate(-36.93999 429.95453) rotate(-59.05344)" style="fill:#0c0c0c"/><rect x="369.7338" y="147.49653" width="3.03372" height="172.92182" transform="translate(-51.18396 352.75191) rotate(-47.92533)" style="fill:#0c0c0c"/><rect x="382.33607" y="136.08429" width="3.03372" height="172.92182" transform="translate(-56.82249 274.26184) rotate(-36.79722)" style="fill:#0c0c0c"/><rect x="396.90401" y="127.31891" width="3.03372" height="172.92182" transform="translate(-53.28381 193.683) rotate(-25.66911)" style="fill:#0c0c0c"/><rect x="412.88978" y="121.53" width="3.03372" height="172.92182" transform="translate(-38.94666 110.70848) rotate(-14.54099)" style="fill:#0c0c0c"/><rect x="429.69227" y="118.93524" width="3.03372" height="172.92182" transform="translate(-11.46264 26.03451) rotate(-3.41288)" style="fill:#0c0c0c"/><rect x="446.67964" y="119.6322" width="3.03372" height="172.92182" transform="translate(31.72519 -58.30454) rotate(7.71523)" style="fill:#0c0c0c"/><rect x="463.2131" y="123.59468" width="3.03372" height="172.92182" transform="translate(92.7512 -138.84137) rotate(18.84334)" style="fill:#0c0c0c"/><rect x="478.67093" y="130.67367" width="3.03372" height="172.92182" transform="translate(172.68696 -210.85021) rotate(29.97145)" style="fill:#0c0c0c"/><path d="M436,94c-109.90465,0-199,89.09531-199,199s89.09535,199,199,199,199-89.09531,199-199S545.90469,94,436,94Zm0,387.457C331.91814,481.457,247.54305,397.08186,247.54305,293S331.91814,104.543,436,104.543,624.457,188.91814,624.457,293,540.08186,481.457,436,481.457Z" style="fill:#0c0c0c"/><path d="M436,104.543c-104.08186,0-188.45695,84.37509-188.45695,188.457S331.91814,481.457,436,481.457,624.457,397.08186,624.457,293,540.08186,104.543,436,104.543Zm0,367.68874A179.23179,179.23179,0,1,1,615.23179,293,179.23181,179.23181,0,0,1,436,472.23179Z" style="fill:#333736"/><path d="M436,113.76821A179.23179,179.23179,0,1,0,615.23179,293,179.23181,179.23181,0,0,0,436,113.76821Zm0,348.57947A169.34768,169.34768,0,1,1,605.34768,293,169.34762,169.34762,0,0,1,436,462.34768Z" style="fill:#0c0c0c"/><circle cx="436" cy="293" r="26.35762" style="fill:#000b17"/></g></g></svg>